
  <svg width="385.5" height="48" viewBox="0 0 2056 256" fill="none" xmlns="http://www.w3.org/2000/svg" xmlns:xlink="http://www.w3.org/1999/xlink" version="1.1">
    
        <g transform="translate(0, 0)">
          <svg width="256" height="256" viewBox="0 0 256 256" fill="none" xmlns="http://www.w3.org/2000/svg">
<rect width="256" height="256" rx="60" fill="#F4F2ED"/>
<path d="M51.8645 171.69C53.4979 171.69 55.0452 172.077 55.8198 172.85C55.9488 174.055 54.8733 175.989 54.1856 175.989C53.3689 175.688 52.5952 175.515 51.6496 175.515C47.7382 175.515 45.8031 179.557 45.8031 183.554C45.8031 186.047 46.6628 187.552 48.6409 187.552C50.747 187.552 52.8961 186.134 54.0996 185.059C54.4005 185.273 54.7873 185.962 54.7873 186.735C54.7873 187.595 54.5294 188.412 53.7558 189.185C52.3803 190.561 50.0593 191.721 46.7057 191.721C42.8373 191.721 40.1724 189.529 40.1724 184.414C40.1724 177.708 44.5996 171.69 51.8215 171.69H51.8645Z" fill="#373535"/>
<path d="M64.5003 187.337C66.6065 187.337 70.4328 183.64 71.5074 176.591C71.5504 176.161 71.5933 176.032 71.6793 175.602C71.2065 175.43 70.5618 175.301 69.9161 175.301C68.3258 175.301 66.6924 175.774 65.231 177.751C63.7267 179.857 63.0819 182.479 63.0819 184.586C63.0819 186.39 63.5977 187.337 64.4574 187.337H64.5003ZM57.5793 185.403C57.5793 182.867 58.4389 178.439 61.6635 175.215C64.4144 172.378 67.767 171.69 70.8197 171.69C72.8398 171.69 75.5907 172.334 77.31 172.679C76.8802 174.57 75.8486 181.705 75.3758 185.832C75.1609 187.595 75.0749 190.045 75.1609 190.948C73.7425 191.549 71.0775 191.721 70.346 191.721C69.96 191.721 69.8731 189.959 70.003 188.283C70.0451 187.724 70.1319 186.907 70.174 186.563C68.4977 189.357 65.1881 191.721 61.7065 191.721C59.2135 191.721 57.5793 189.658 57.5793 185.446V185.403V185.403Z" fill="#373535"/>
<path d="M88.0116 171.69C89.7738 171.69 91.4501 172.335 92.2247 173.151C92.1817 174.356 91.2361 176.375 89.7309 175.816C89.0861 175.601 88.4414 175.43 87.5817 175.43C86.4212 175.43 85.4326 175.946 85.4326 177.02C85.4326 177.836 86.0344 178.439 88.9142 180.459C90.9782 181.964 91.7949 183.296 91.7949 185.187C91.7949 188.326 88.8282 191.721 83.6703 191.721C81.5642 191.721 79.7151 190.905 79.1133 190.045C78.3396 188.756 78.9414 186.22 79.8019 186.649C80.9195 187.207 82.7677 187.81 84.2721 187.81C85.6905 187.81 86.5931 187.164 86.5931 186.305C86.5931 185.575 85.9484 184.929 83.3265 183.081C81.1335 181.448 80.4458 179.943 80.4458 178.224C80.4458 174.657 83.4984 171.69 87.9686 171.69H88.0116Z" fill="#373535"/>
<path d="M102.84 171.69C104.603 171.69 106.279 172.335 107.053 173.151C107.01 174.356 106.065 176.375 104.56 175.816C103.915 175.601 103.27 175.43 102.411 175.43C101.25 175.43 100.262 175.946 100.262 177.02C100.262 177.836 100.863 178.439 103.743 180.459C105.806 181.964 106.623 183.296 106.623 185.187C106.623 188.326 103.656 191.721 98.4985 191.721C96.3923 191.721 94.5441 190.905 93.9423 190.045C93.1686 188.756 93.7704 186.22 94.63 186.649C95.7476 187.207 97.5958 187.81 99.1002 187.81C100.519 187.81 101.421 187.164 101.421 186.305C101.421 185.575 100.777 184.929 98.1546 183.081C95.9625 181.448 95.2748 179.943 95.2748 178.224C95.2748 174.657 98.3265 171.69 102.798 171.69H102.84Z" fill="#373535"/>
<path d="M116.378 187.337C118.485 187.337 122.311 183.64 123.385 176.591C123.428 176.161 123.472 176.032 123.558 175.602C123.084 175.43 122.441 175.301 121.795 175.301C120.205 175.301 118.571 175.774 117.109 177.751C115.606 179.857 114.96 182.479 114.96 184.586C114.96 186.39 115.476 187.337 116.336 187.337H116.378ZM109.457 185.403C109.457 182.867 110.318 178.439 113.541 175.215C116.292 172.378 119.645 171.69 122.698 171.69C124.718 171.69 127.47 172.334 129.189 172.679C128.759 174.57 127.727 181.705 127.255 185.832C127.039 187.595 126.954 190.045 127.039 190.948C125.62 191.549 122.956 191.721 122.225 191.721C121.839 191.721 121.752 189.959 121.881 188.283C121.924 187.724 122.01 186.907 122.053 186.563C120.377 189.357 117.067 191.721 113.585 191.721C111.092 191.721 109.457 189.658 109.457 185.446V185.403V185.403Z" fill="#373535"/>
<path d="M138.901 177.278C140.879 174.097 143.457 171.69 147.069 171.69C150.12 171.69 151.109 174.527 150.551 178.567C150.25 180.459 149.734 183.167 149.39 185.66C149.089 187.767 148.874 189.658 148.918 190.948C147.8 191.507 144.533 191.722 143.802 191.722C143.501 191.722 143.457 189.357 143.845 186.864C144.188 184.801 144.919 181.061 145.263 178.911C145.479 177.666 145.435 176.16 144.232 176.16C142.64 176.16 138.859 178.697 136.967 189.099C136.837 189.959 136.494 190.474 136.02 190.775C135.376 191.163 134 191.507 131.207 191.55C131.723 188.928 132.54 183.554 133.141 179.6C133.699 175.989 133.915 173.667 133.785 172.765C134.517 172.507 138.343 171.69 138.771 171.69C139.246 171.69 139.331 173.023 138.901 176.247C138.859 176.548 138.815 177.02 138.771 177.278H138.901Z" fill="#373535"/>
<path d="M160.737 187.294C162.627 187.294 166.454 183.769 167.528 177.536C167.572 177.192 167.701 176.548 167.787 176.16C167.227 175.644 166.496 175.3 165.337 175.3C160.994 175.3 159.06 180.502 159.06 184.242C159.06 186.262 159.748 187.294 160.693 187.294H160.737ZM157.9 191.721C155.149 191.721 153.43 189.271 153.43 185.059C153.43 178.095 157.77 171.69 165.078 171.69C166.368 171.69 167.528 172.033 168.259 172.463C168.646 170.486 169.548 164.382 169.592 162.576C170.795 162.362 173.374 161.976 174.534 161.976C175.009 161.976 175.138 162.448 174.965 163.522C173.932 169.97 172.086 182.35 171.741 185.102C171.482 187.423 171.44 189.701 171.482 190.99C170.108 191.592 167.313 191.721 166.583 191.721C166.281 191.721 166.11 189.744 166.196 187.982C166.239 187.423 166.324 186.605 166.324 186.477C164.175 190.002 161.209 191.721 157.942 191.721H157.9Z" fill="#373535"/>
<path d="M183.087 177.88C185.366 172.807 188.073 171.69 189.836 171.69C190.395 171.69 191.254 172.034 191.641 172.464C191.814 173.882 190.696 176.719 189.707 177.793C189.19 177.536 188.547 177.278 187.816 177.278C186.353 177.278 183.473 179.557 181.668 189.357C181.538 190.174 181.281 190.518 180.809 190.733C180.079 191.163 177.198 191.507 175.823 191.55C176.466 188.024 177.584 180.846 178.015 176.633C178.144 175.558 178.186 173.581 178.101 172.807C178.917 172.421 182.142 171.69 182.872 171.69C183.259 171.69 183.56 174.055 182.957 177.88H183.087Z" fill="#373535"/>
<path d="M198.259 187.337C200.367 187.337 204.191 183.64 205.267 176.591C205.309 176.161 205.353 176.032 205.439 175.602C204.966 175.43 204.321 175.301 203.676 175.301C202.085 175.301 200.452 175.774 198.99 177.751C197.486 179.857 196.84 182.479 196.84 184.586C196.84 186.39 197.356 187.337 198.217 187.337H198.259ZM191.338 185.403C191.338 182.867 192.198 178.439 195.422 175.215C198.173 172.378 201.526 171.69 204.578 171.69C206.598 171.69 209.349 172.334 211.07 172.679C210.64 174.57 209.608 181.705 209.135 185.832C208.92 187.595 208.833 190.045 208.92 190.948C207.502 191.549 204.837 191.721 204.105 191.721C203.719 191.721 203.633 189.959 203.762 188.283C203.805 187.724 203.89 186.907 203.934 186.563C202.257 189.357 198.948 191.721 195.466 191.721C192.972 191.721 191.338 189.658 191.338 185.446V185.403V185.403Z" fill="#373535"/>
<path d="M185.636 98.847C187.054 115.37 161.051 131.096 127.557 133.97C94.0627 136.843 65.7606 125.775 64.344 109.253C62.9255 92.7274 88.929 77.0021 122.423 74.1285C155.917 71.2559 184.219 82.3211 185.636 98.847Z" fill="#BBE6FB"/>
<g opacity="0.350006">
<g opacity="0.350006">
<path opacity="0.350006" d="M123.406 76.0663C110.63 75.8586 95.6789 80.9314 84.5545 85.6818C83.3967 89.0183 82.7734 92.5671 82.7734 96.2457C82.7734 115.846 100.471 131.737 122.304 131.737C144.136 131.737 161.834 115.846 161.834 96.2457C161.834 90.0428 160.058 84.2151 156.942 79.1414C148.042 77.7579 135.801 76.2678 123.406 76.0663Z" fill="white"/>
</g>
</g>
<path d="M122.303 76.0625C115.23 75.6309 103.038 79.3211 92.8721 83.0023C91.3274 86.6478 90.4695 90.6371 90.4695 94.8234C90.4695 111.997 106.04 125.918 122.511 125.918C138.874 125.918 153.351 111.974 154.553 94.8234C154.943 89.2384 153.021 83.9757 150.351 79.4384C139.812 77.5821 128.626 76.4484 122.303 76.0625Z" fill="white"/>
<path d="M104.151 92.5685C105.019 90.6468 106.334 89.7057 107.607 88.0948C107.466 87.7133 107.156 86.4659 107.156 86.0334C107.156 84.1028 108.722 82.5357 110.653 82.5357C111.109 82.5357 111.544 82.6262 111.943 82.7846C117.732 78.3727 125.353 76.4492 133.012 78.1614C133.712 78.319 134.398 78.5097 135.071 78.7192C127.502 77.6697 118.97 80.3508 113.166 85.035C113.343 85.4531 113.835 86.6486 113.835 87.1295C113.835 89.061 112.585 89.5311 110.653 89.5311C110.215 89.5311 109.796 89.4469 109.408 89.2992C108.097 91.0597 106.49 94.4132 105.704 96.5095C108.913 99.3803 111.813 100.421 115.592 101.833C115.582 101.653 115.722 101.486 115.722 101.303C115.722 95.4797 120.848 90.7471 126.672 90.7471C131.891 90.7471 136.213 94.5421 137.056 99.5209C139.66 97.8643 142.178 96.5945 144.097 94.1392C143.65 93.5929 143.167 92.0465 143.167 91.2853C143.167 89.5329 144.589 88.1118 146.341 88.1118C146.589 88.1118 146.828 88.1476 147.059 88.2013C148.034 86.1991 148.769 84.0768 149.239 81.8883C140.132 75.1463 122.512 76.066 122.512 76.066C122.512 76.066 108.491 75.3344 98.9989 79.9603C99.632 84.5371 101.458 88.8881 104.151 92.5685Z" fill="#373535"/>
<path d="M147.679 89.9418C148.323 90.522 148.674 91.0316 148.951 91.5277C149.802 93.0589 148.094 94.4603 146.341 94.4603C146.163 94.4603 145.991 94.4361 145.82 94.4075C143.846 97.4933 140.387 101.45 137.315 103.442C142.026 104.214 146.468 106.1 150.004 109.016C152.578 104.404 154.553 97.7431 154.553 92.0855C154.553 87.7792 152.652 84.6227 149.782 82.307C149.631 84.6138 148.4 87.8401 147.679 89.9418Z" fill="#373535"/>
<path d="M109.437 119.156C111.007 114.821 114.868 111.462 118.52 108.507C117.986 107.776 117.184 105.964 116.85 105.106C112.395 103.752 108.454 101.216 105.396 97.8585C105.374 97.9561 105.346 98.051 105.323 98.1486C104.747 100.728 104.642 103.314 104.928 105.835C107.061 106.233 108.676 108.102 108.676 110.35C108.676 111.684 107.507 113.616 106.6 114.457C107.586 116.584 108.258 117.611 109.437 119.156Z" fill="#373535"/>
<path d="M109.16 122.795C107.288 120.934 105.993 117.22 104.778 114.888C104.551 114.923 104.318 114.947 104.08 114.947C101.54 114.947 98.8796 112.816 99.4813 110.35C99.8144 108.985 100.756 108.093 102.29 107.348C101.941 104.521 101.846 100.457 102.503 97.518C102.691 96.6771 103.089 96.2831 103.353 95.4826C100.551 91.3823 98.7408 86.0005 98.7408 80.6608C98.7408 80.4656 98.7506 80.2731 98.7551 80.0797C94.0199 82.4545 90.4694 86.1957 90.4694 92.0852C90.4694 105.112 97.9725 117.892 109.136 122.901C109.144 122.866 109.151 122.83 109.16 122.795Z" fill="#373535"/>
<path d="M136.612 104.786C135.169 108.889 131.268 111.836 126.672 111.836C124.213 111.836 121.957 110.988 120.165 109.578C116.469 112.456 113.116 117.512 111.412 121.898C112.177 122.721 112.71 123.398 113.568 124.128C116.153 124.801 119.713 124.128 122.512 124.128C133.768 124.128 143.737 119.121 149.453 110.34C145.652 107.708 141.17 105.203 136.612 104.786Z" fill="#373535"/>
<path d="M103.863 94.091C104.731 92.1693 105.819 90.3909 107.091 88.78C106.95 88.3994 106.867 87.9884 106.867 87.5559C106.867 85.6252 108.433 84.0582 110.365 84.0582C110.821 84.0582 111.256 84.1486 111.654 84.3071C117.443 79.8951 125.065 77.9717 132.724 79.6838C133.423 79.8414 134.109 80.0321 134.782 80.2417C127.213 79.1922 119.392 81.5124 113.589 86.1974C113.766 86.6147 113.863 87.075 113.863 87.5559C113.863 89.4874 112.296 91.0535 110.365 91.0535C109.926 91.0535 109.507 90.9694 109.119 90.8216C107.808 92.5821 106.736 94.5271 105.95 96.6242C108.706 99.5945 112.089 101.943 115.867 103.355C115.859 103.175 115.84 102.997 115.84 102.814C115.84 96.9905 120.56 92.2696 126.384 92.2696C131.603 92.2696 135.924 96.0646 136.768 101.043C139.372 99.3868 141.686 97.2591 143.604 94.8038C143.156 94.2575 142.878 93.5689 142.878 92.8078C142.878 91.0553 144.3 89.6342 146.053 89.6342C146.301 89.6342 146.539 89.6701 146.771 89.7238C147.745 87.7215 148.48 85.5993 148.95 83.4107C139.844 76.6688 122.223 77.5884 122.223 77.5884C122.223 77.5884 108.202 76.8568 98.7103 81.4828C99.3434 86.0595 101.169 90.4106 103.863 94.091Z" fill="#1287B1"/>
<path d="M148.171 90.4611C148.814 91.0414 149.227 91.8732 149.227 92.8081C149.227 94.5605 147.805 95.9825 146.053 95.9825C145.875 95.9825 145.703 95.9584 145.532 95.9297C143.557 99.0155 140.941 101.646 137.867 103.638C142.409 104.348 146.684 106.275 150.218 109.191C152.793 104.578 154.264 99.2653 154.264 93.6078C154.264 89.3015 152.363 86.1449 149.493 83.8293C149.343 86.136 148.891 88.3594 148.171 90.4611Z" fill="#1287B1"/>
<path d="M109.921 120.198C111.491 115.863 114.219 111.973 117.871 109.019C117.337 108.286 116.896 107.487 116.562 106.629C112.106 105.274 108.165 102.738 105.108 99.3808C105.086 99.4785 105.057 99.5734 105.035 99.671C104.458 102.251 104.352 104.836 104.64 107.358C106.772 107.755 108.387 109.624 108.387 111.873C108.387 113.206 107.815 114.405 106.908 115.246C107.731 116.99 108.743 118.652 109.921 120.198Z" fill="#1287B1"/>
<path d="M109.148 122.742C107.276 120.881 105.704 118.742 104.49 116.412C104.262 116.446 104.029 116.47 103.791 116.47C101.252 116.47 99.1933 114.411 99.1933 111.872C99.1933 110.053 100.253 108.484 101.787 107.739C101.439 104.913 101.557 101.979 102.215 99.0404C102.403 98.2004 102.632 97.3802 102.896 96.5787C100.094 92.4793 98.4527 87.5229 98.4527 82.1832C98.4527 81.988 98.4617 81.7955 98.4661 81.603C93.7309 83.9768 90.1804 87.719 90.1804 93.6076C90.1804 106.636 97.9602 117.839 109.124 122.848C109.132 122.813 109.139 122.777 109.148 122.742Z" fill="#1287B1"/>
<path d="M136.323 106.308C134.88 110.411 130.98 113.358 126.383 113.358C123.924 113.358 121.669 112.51 119.876 111.101C116.18 113.979 113.391 117.902 111.688 122.289C112.452 123.112 113.268 123.887 114.126 124.616C116.712 125.29 119.425 125.65 122.223 125.65C133.479 125.65 143.375 119.839 149.091 111.059C145.29 108.426 140.881 106.726 136.323 106.308Z" fill="#1287B1"/>
<path d="M136.693 103.59L146.435 101.266L136.656 100.767L144.614 94.6852L135.584 97.9223L141.721 89.4181L133.245 95.0515L136.209 85.0966L130.388 93.3017L130.255 82.9331L126.426 92.169L123.232 82.823L123.405 93.8327L117.886 83.9638L120.873 94.4426L111.921 87.9325L118.933 96.7439L107.82 92.657L116.591 99.1464L105.344 99.4921L116.843 102.46L105.334 104.948L116.695 105.772L107.114 111.907L116.979 108.33L110.134 116.999L118.784 110.024L115.669 121.657L122.347 112.19L121.411 123.371L125.201 113.235L128.428 123.888L129.212 113.203L134.001 122.319L131.172 111.892L139.941 118.685L134.28 110.024L143.901 113.772L136.544 106.543L146.409 107.318L136.693 103.59Z" fill="white"/>
<g opacity="0.350006">
<g opacity="0.350006">
<path opacity="0.350006" d="M32.981 122.23C63.1941 92.0183 87.3242 82.6911 109.224 78.4332C112.121 77.87 112.67 71.5381 112.67 71.5381C112.67 71.5381 113.075 76.2017 115.103 76.8097C117.131 77.4186 119.766 69.5099 119.766 69.5099C119.766 69.5099 117.333 76.6074 119.766 77.013C122.2 77.4186 126.66 70.1188 126.66 70.1188C126.66 70.1188 124.836 76.4041 126.053 76.8097C127.268 77.2154 133.351 67.6858 133.351 67.6858C133.351 67.6858 129.701 73.9711 133.149 74.58C136.597 75.188 141.626 70.2898 141.626 70.2898C141.626 70.2898 137.672 74.7716 139.434 75.3904C146.937 78.0276 153.008 68.2759 153.008 68.2759C153.008 68.2759 151.602 72.5518 147.952 77.2154C155.859 79.2427 161.732 67.3303 161.732 67.3303L155.859 79.2427C158.901 80.8662 171.068 66.8745 171.068 66.8745C171.068 66.8745 164.782 77.8243 161.132 80.054C163.159 81.6766 170.459 75.188 170.459 75.188C170.459 75.188 164.579 82.487 166.809 82.8926C170.054 85.5289 182.016 69.3075 182.016 69.3075C182.016 69.3075 177.354 78.8371 170.459 86.3402C176.222 89.2227 190.534 70.7268 190.534 70.7268C190.534 70.7268 190.128 76.6073 179.786 85.9345C187.492 84.9209 197.428 70.3212 197.428 70.3212C197.428 70.3212 193.778 81.2709 185.058 88.9755C192.624 88.1884 204.726 69.5099 204.726 69.5099C204.726 69.5099 200.063 82.487 190.534 89.9901C201.078 92.3219 216.286 76.6073 216.286 76.6073C216.286 76.6073 210.304 87.7604 202.496 92.3219C211.216 95.6674 223.18 81.879 223.18 81.879C223.18 81.879 211.216 100.332 192.156 99.5205C185.903 99.2546 166.986 80.5474 126.458 82.0822C72.9269 84.1105 61.5724 106.82 32.981 122.23Z" fill="#373535"/>
</g>
</g>
<path d="M34.2193 119.936C64.4323 89.7236 88.5616 80.3974 110.461 76.1385C113.36 75.5753 113.908 69.2443 113.908 69.2443C113.908 69.2443 114.313 73.9088 116.342 74.5159C118.369 75.124 121.004 67.217 121.004 67.217C121.004 67.217 118.571 74.3145 121.004 74.7192C123.438 75.124 127.899 67.825 127.899 67.825C127.899 67.825 126.074 74.1103 127.29 74.5159C128.507 74.9216 134.589 65.3911 134.589 65.3911C134.589 65.3911 130.94 71.6773 134.387 72.2853C137.834 72.8943 142.864 67.9961 142.864 67.9961C142.864 67.9961 138.91 72.4779 140.672 73.0966C148.175 75.7329 154.245 65.9821 154.245 65.9821C154.245 65.9821 152.838 70.258 149.19 74.9216C157.097 76.9498 162.97 65.0356 162.97 65.0356L157.097 76.9498C160.139 78.5715 172.305 64.5816 172.305 64.5816C172.305 64.5816 166.02 75.5296 162.37 77.7602C164.398 79.3828 171.698 72.8943 171.698 72.8943C171.698 72.8943 165.817 80.1941 168.048 80.5988C171.292 83.236 183.254 67.0137 183.254 67.0137C183.254 67.0137 178.59 76.5442 171.698 84.0464C177.46 86.9298 191.772 68.433 191.772 68.433C191.772 68.433 191.367 74.3145 181.025 83.6416C188.73 82.6271 198.666 68.0274 198.666 68.0274C198.666 68.0274 195.016 78.9772 186.296 86.6826C193.862 85.8955 205.964 67.217 205.964 67.217C205.964 67.217 201.302 80.1941 191.772 87.6963C202.316 90.0281 217.524 74.3145 217.524 74.3145C217.524 74.3145 211.542 85.4657 203.735 90.0281C212.455 93.3736 224.418 79.5852 224.418 79.5852C224.418 79.5852 212.455 98.0381 193.393 97.2268C187.141 96.9599 168.224 78.2527 127.695 79.7884C74.1652 81.8158 62.8098 104.526 34.2193 119.936Z" fill="#373535"/>
<g opacity="0.350006">
<g opacity="0.350006">
<path opacity="0.350006" d="M32.1896 125.535C48.1576 133.545 62.7582 124.319 81.1591 129.504C95.149 133.448 112.183 138.309 135.297 134.963C158.413 131.619 178.184 121.581 187.614 103.635C190.554 95.6271 202.516 105.461 202.516 105.461C202.516 105.461 193.798 101.811 194.001 103.535C194.204 105.258 207.08 111.24 207.08 111.24C207.08 111.24 195.42 107.59 196.13 110.327C196.84 113.064 210.728 124.014 210.728 124.014C210.728 124.014 195.014 112.051 193.697 113.672C192.378 115.295 200.388 121.886 200.388 121.886C200.388 121.886 187.106 113.672 182.442 116.095C179.087 117.835 196.231 129.084 196.231 129.084C196.231 129.084 185.078 120.567 182.442 122.797C179.806 125.029 195.014 143.278 195.014 143.278C195.014 143.278 177.777 124.622 176.055 125.535C174.331 126.447 180.819 135.37 180.819 135.37C180.819 135.37 172.303 126.042 169.972 127.664C167.641 129.287 182.138 153.517 182.138 153.517C182.138 153.517 166.424 128.679 159.935 132.834C170.125 155.19 166.322 158.384 166.322 158.384C166.322 158.384 165.022 135.576 152.331 136.18C145.943 136.485 155.372 153.213 155.372 153.213C155.372 153.213 146.694 137.934 140.914 138.239C151.566 158.397 147.769 166.595 147.769 166.595C147.769 166.595 149.531 149.379 135.084 139.799C140.558 144.664 131.649 166.595 131.649 166.595C131.649 166.595 139.486 134.277 125.869 140.439C123.717 141.41 125.717 156.559 125.717 156.559C125.717 156.559 122.979 139.221 118.874 140.134C116.481 140.665 103.666 164.162 103.666 164.162C103.666 164.162 114.16 138.765 110.967 139.83C108.64 140.606 104.275 151.084 104.275 151.084C104.275 151.084 106.403 140.742 104.275 140.134C102.146 139.526 90.283 151.084 90.283 151.084C90.283 151.084 99.1043 140.742 97.5829 138.613C95.2779 135.387 92.5763 135.235 89.3705 136.485C84.7061 138.302 78.4217 146.825 78.4217 146.825C78.4217 146.825 84.6864 138.196 83.5912 134.963C81.8334 129.769 63.822 145 63.822 145C63.822 145 74.4673 134.963 72.0343 132.834C69.6013 130.705 56.3896 131.363 52.2642 131.352C40.0984 131.314 35.8825 128.46 32.1896 125.535Z" fill="#373535"/>
</g>
</g>
<path d="M31.5819 123.71C47.5498 131.719 62.1495 122.494 80.5505 127.68C94.5403 131.622 111.575 136.484 134.69 133.138C157.806 129.792 177.575 119.755 187.005 101.811C189.945 93.8019 201.908 103.635 201.908 103.635C201.908 103.635 193.189 99.986 193.393 101.71C193.595 103.433 206.471 109.414 206.471 109.414C206.471 109.414 194.811 105.765 195.521 108.503C196.231 111.239 210.121 122.189 210.121 122.189C210.121 122.189 194.405 110.225 193.088 111.848C191.771 113.47 199.78 120.06 199.78 120.06C199.78 120.06 186.498 111.848 181.834 114.269C178.479 116.009 195.622 127.258 195.622 127.258C195.622 127.258 184.469 118.742 181.834 120.972C179.198 123.204 194.407 141.452 194.407 141.452C194.407 141.452 177.169 122.797 175.447 123.71C173.724 124.623 180.212 133.544 180.212 133.544C180.212 133.544 171.695 124.216 169.364 125.839C167.032 127.461 181.53 151.692 181.53 151.692C181.53 151.692 165.815 126.853 159.326 131.009C169.516 153.365 165.714 156.559 165.714 156.559C165.714 156.559 164.414 133.751 151.722 134.356C145.335 134.66 154.763 151.388 154.763 151.388C154.763 151.388 146.085 136.108 140.307 136.413C150.959 156.571 147.161 164.77 147.161 164.77C147.161 164.77 148.922 147.553 134.475 137.973C139.949 142.839 131.04 164.77 131.04 164.77C131.04 164.77 138.879 132.452 125.262 138.614C123.11 139.586 125.11 154.734 125.11 154.734C125.11 154.734 122.371 137.397 118.267 138.309C115.872 138.84 103.057 162.337 103.057 162.337C103.057 162.337 113.551 136.94 110.358 138.006C108.031 138.78 103.666 149.258 103.666 149.258C103.666 149.258 105.795 138.917 103.666 138.309C101.538 137.701 89.6753 149.258 89.6753 149.258C89.6753 149.258 98.4965 138.917 96.9742 136.788C94.6693 133.561 91.9677 133.411 88.7628 134.66C84.0974 136.477 77.813 145 77.813 145C77.813 145 84.0777 136.37 82.9834 133.138C81.2247 127.945 63.2142 143.175 63.2142 143.175C63.2142 143.175 73.8595 133.138 71.4257 131.009C68.9927 128.88 55.781 129.539 51.6555 129.526C39.4897 129.488 35.2748 126.635 31.5819 123.71Z" fill="#373535"/>
</svg>

        </g>
         
        <g transform="translate(300, 0)">
          <svg xmlns="http://www.w3.org/2000/svg" width="256" height="256" fill="none" viewBox="0 0 256 256"><rect width="256" height="256" fill="#023430" rx="60"/><path fill="#10AA50" d="M171.173 107.591C160.636 61.1097 138.676 48.7357 133.074 39.9886C130.764 36.1353 128.717 32.1299 126.949 28C126.653 32.1292 126.109 34.7307 122.599 37.862C115.552 44.1454 85.6217 68.5354 83.1028 121.348C80.756 170.59 119.303 200.953 124.395 204.092C128.311 206.019 133.08 204.133 135.407 202.364C153.988 189.612 179.376 155.614 171.193 107.591"/><path fill="#B8C4C2" d="M128.545 177.871C127.575 190.059 126.88 197.141 124.416 204.106C124.416 204.106 126.033 215.709 127.169 228H131.188C132.147 219.345 133.61 210.753 135.572 202.268C130.369 199.708 128.745 188.566 128.545 177.871Z"/><path fill="#12924F" d="M135.565 202.275C130.307 199.846 128.786 188.469 128.552 177.871C129.852 160.388 130.231 142.849 129.688 125.326C129.412 116.132 129.818 40.1676 127.423 29.0461C129.062 32.8129 130.949 36.4662 133.074 39.9818C138.676 48.7358 160.643 61.1097 171.173 107.591C179.376 155.532 154.126 189.44 135.565 202.275Z"/></svg>
        </g>
         
        <g transform="translate(600, 0)">
          <svg xmlns="http://www.w3.org/2000/svg" width="256" height="256" fill="none" viewBox="0 0 256 256"><rect width="256" height="256" fill="#F4F2ED" rx="60"/><g clip-path="url(#clip0_7_150)"><path fill="#00678C" fill-rule="evenodd" d="M203.801 178.21C194.011 177.938 186.416 178.941 180.051 181.619C178.218 182.355 175.277 182.355 175.035 184.662C176.015 185.63 176.133 187.214 176.992 188.556C178.459 190.991 181.033 194.271 183.357 195.973L191.191 201.571C195.965 204.488 201.351 206.193 206.002 209.113C208.696 210.817 211.388 213.007 214.082 214.834C215.454 215.807 216.285 217.392 218 217.997V217.629C217.144 216.538 216.897 214.957 216.044 213.735L212.367 210.209C208.82 205.465 204.41 201.325 199.636 197.922C195.718 195.245 187.152 191.596 185.56 187.097L185.319 186.824C188.008 186.552 191.191 185.605 193.764 184.875C197.929 183.784 201.721 184.024 206.002 182.93L211.882 181.226V180.135C209.678 177.946 208.087 175.025 205.763 172.959C199.521 167.606 192.661 162.373 185.56 157.994C181.766 155.562 176.868 153.977 172.829 151.913C171.356 151.182 168.911 150.817 168.055 149.601C165.846 146.929 164.625 143.397 163.034 140.232L152.997 119.064C150.794 114.319 149.444 109.574 146.755 105.195C134.144 84.5124 120.431 71.9828 99.375 59.6932C94.8477 57.1382 89.4616 56.0393 83.7353 54.7032L74.5546 54.2124C72.5928 53.3616 70.6364 51.0493 68.9216 49.9531C61.9441 45.5739 43.9475 36.0847 38.8029 48.5897C35.4966 56.4974 43.7006 64.2824 46.4855 68.299C48.5708 71.0966 51.2597 74.2597 52.7332 77.4228C53.5563 79.4897 53.8307 81.682 54.6895 83.8717C56.6458 89.2243 58.4842 95.1878 61.0551 100.178C62.427 102.733 63.8675 105.413 65.5824 107.723C66.5619 109.086 68.2768 109.67 68.6417 111.859C66.9268 114.294 66.8089 117.94 65.8293 120.986C61.42 134.734 63.1349 151.766 69.377 161.888C71.3389 164.928 75.9622 171.622 82.2345 169.065C87.744 166.875 86.5148 159.941 88.1062 153.857C88.4766 152.399 88.2297 151.425 88.9623 150.449V150.722L93.9834 160.819C97.7781 166.78 104.391 172.986 109.897 177.125C112.833 179.315 115.16 183.089 118.831 184.425V184.057H118.59C117.854 182.966 116.751 182.475 115.772 181.624C113.569 179.435 111.121 176.757 109.406 174.325C104.267 167.513 99.7399 159.968 95.6983 152.183C93.7365 148.412 92.0216 144.275 90.4357 140.504C89.6949 139.043 89.6949 136.85 88.4739 136.125C86.6355 138.797 83.9466 141.115 82.5939 144.398C80.2672 149.628 80.0257 156.077 79.1697 162.769C78.6758 162.891 78.8953 162.769 78.6758 163.041C74.7631 162.071 73.4132 158.051 71.9453 154.648C68.274 146.01 67.6594 132.141 70.8422 122.164C71.6983 119.609 75.375 111.579 73.9071 109.146C73.1662 106.834 70.7242 105.498 69.3743 103.671C67.7829 101.359 66.0735 98.4409 64.9705 95.8859C62.0346 89.0689 60.5667 81.5293 57.3812 74.7151C55.9077 71.552 53.3396 68.2662 51.257 65.3486C48.9303 62.0628 46.3648 59.7505 44.5265 55.8593C43.9146 54.4959 43.0585 52.3309 44.0381 50.8693C44.2795 49.8959 44.7734 49.5059 45.7475 49.2878C47.3389 47.9244 51.8716 49.6532 53.463 50.3785C57.9903 52.2054 61.7849 53.907 65.5796 56.4592C67.2945 57.6754 69.1329 59.9877 71.3361 60.5985H73.9098C77.8279 61.4493 82.2317 60.8712 85.9002 61.9619C92.3893 64.0343 98.2637 67.0719 103.532 70.3604C119.567 80.4577 132.792 94.8143 141.725 111.971C143.193 114.769 143.805 117.324 145.155 120.244C147.729 126.208 150.912 132.289 153.477 138.132C156.051 143.85 158.498 149.694 162.17 154.438C164.008 156.993 171.35 158.329 174.654 159.668C177.104 160.759 180.896 161.741 183.105 163.077C187.264 165.632 191.427 168.552 195.342 171.35C197.298 172.806 203.423 175.849 203.787 178.276L203.801 178.21ZM78.9584 72.4873C77.267 72.4724 75.5809 72.6769 73.9427 73.0954V73.3681H74.1842C75.1637 75.315 76.8786 76.6538 78.1023 78.3581L80.9202 84.1989L81.1616 83.9262C82.8765 82.71 83.7353 80.7631 83.7353 77.8454C83 76.9947 82.8793 76.1412 82.2674 75.2904C81.5321 74.0743 79.9407 73.4635 78.9584 72.4928V72.4873Z" clip-rule="evenodd"/></g><defs><clipPath id="clip0_7_150"><rect width="180" height="180" fill="#fff" transform="translate(38 38)"/></clipPath></defs></svg>
        </g>
         
        <g transform="translate(900, 0)">
          <svg xmlns="http://www.w3.org/2000/svg" width="256" height="256" fill="none" viewBox="0 0 256 256"><rect width="256" height="256" fill="#F4F2ED" rx="60"/><g clip-path="url(#clip0_7_155)"><path fill="#000" d="M171.474 169.034C172.62 159.493 172.276 158.101 179.377 159.641L181.184 159.802C186.648 160.048 193.791 158.923 198.059 156.976C207.095 152.785 212.452 145.782 203.544 147.624C183.223 151.815 181.747 144.931 181.747 144.931C203.213 113.08 212.192 72.65 204.437 62.757C183.315 35.757 146.745 48.5258 146.134 48.8633L145.937 48.8984C141.929 48.0547 137.499 47.5625 132.366 47.4922C123.17 47.3516 116.195 49.9039 110.893 53.9188C110.893 53.9188 45.6641 27.0453 48.6945 87.718C49.3414 100.627 67.1867 185.452 88.4914 159.788C96.2891 150.409 103.813 142.484 103.813 142.484C107.539 144.966 112.018 146.232 116.708 145.775L117.073 145.466C116.965 146.681 117.015 147.905 117.221 149.108C111.737 155.239 113.354 156.315 102.385 158.572C91.2899 160.857 97.8149 164.928 102.062 165.997C107.223 167.291 119.162 169.119 127.234 157.827L126.91 159.113C129.062 160.836 128.914 171.488 129.23 179.096C129.547 186.704 130.046 193.813 131.6 197.996C133.154 202.18 134.975 212.973 149.389 209.949C161.434 207.369 170.645 203.649 171.488 169.098"/><path stroke="#000" stroke-width="15.11" d="M171.474 169.034C172.62 159.493 172.276 158.101 179.377 159.641L181.184 159.802C186.648 160.048 193.791 158.923 198.059 156.976C207.095 152.785 212.452 145.782 203.544 147.624C183.223 151.815 181.747 144.931 181.747 144.931C203.213 113.08 212.192 72.65 204.437 62.757C183.315 35.757 146.745 48.5258 146.134 48.8633L145.937 48.8984C141.929 48.0547 137.499 47.5625 132.366 47.4922C123.17 47.3516 116.195 49.9039 110.893 53.9188C110.893 53.9188 45.6641 27.0453 48.6945 87.718C49.3414 100.627 67.1867 185.452 88.4914 159.788C96.2891 150.409 103.813 142.484 103.813 142.484C107.539 144.966 112.018 146.232 116.708 145.775L117.073 145.466C116.965 146.681 117.015 147.905 117.221 149.108C111.737 155.239 113.354 156.315 102.385 158.572C91.2899 160.857 97.8149 164.928 102.062 165.997C107.223 167.291 119.162 169.119 127.234 157.827L126.91 159.113C129.062 160.836 128.914 171.488 129.23 179.096C129.547 186.704 130.046 193.813 131.6 197.996C133.154 202.18 134.975 212.973 149.389 209.949C161.434 207.369 170.645 203.649 171.488 169.098"/><path fill="#336791" d="M203.48 147.688C183.16 151.878 181.684 144.995 181.684 144.995C203.15 113.143 212.129 72.7134 204.38 62.8204C183.259 35.8204 146.689 48.5962 146.077 48.9266L145.88 48.9618C141.414 48.0656 136.873 47.5924 132.317 47.5485C123.12 47.4079 116.145 49.9602 110.844 53.9751C110.844 53.9751 45.6078 27.1016 48.6453 87.7743C49.2922 100.684 67.1375 185.509 88.4422 159.845C96.2891 150.409 103.813 142.484 103.813 142.484C107.539 144.966 112.018 146.232 116.708 145.775L117.073 145.466C116.966 146.681 117.016 147.905 117.221 149.108C111.737 155.239 113.354 156.315 102.385 158.572C91.2899 160.857 97.8149 164.928 102.062 165.997C107.223 167.291 119.162 169.119 127.234 157.827L126.91 159.113C129.062 160.836 130.566 170.314 130.313 178.906C130.06 187.499 129.891 193.391 131.579 198.003C133.266 202.616 134.954 212.98 149.368 209.956C161.413 207.376 167.649 200.675 168.528 189.524C169.147 181.592 170.539 182.759 170.638 175.672L171.763 172.311C173.049 161.553 171.973 158.087 179.391 159.704L181.198 159.866C186.662 160.112 193.813 158.987 198.003 157.039C207.038 152.849 212.396 145.845 203.488 147.688H203.48Z"/><path stroke="#fff" stroke-linecap="round" stroke-linejoin="round" stroke-width="5.034" d="M146.07 48.5961C143.82 49.2993 182.38 34.4985 204.303 62.504C212.038 72.3969 203.073 112.827 181.606 144.678M128.098 153.784C127.536 173.795 128.239 193.946 130.194 198.784C132.148 203.621 136.346 213.198 150.767 210.118C162.812 207.538 167.199 202.538 169.098 191.506L173.548 156.231L128.098 153.784ZM110.816 53.4688C110.816 53.4688 45.5375 26.7782 48.575 87.4508C49.2219 100.36 67.0672 185.185 88.3719 159.521C96.1484 150.148 103.18 142.815 103.18 142.815L110.816 53.4688Z"/><path stroke="#fff" stroke-linecap="round" stroke-linejoin="bevel" stroke-width="5.034" d="M181.613 144.664C181.613 144.664 183.02 151.555 203.41 147.35C212.319 145.508 206.954 152.511 197.926 156.702C190.515 160.147 173.893 161.026 173.619 156.28C172.916 144.01 182.366 147.737 181.684 144.664C181.065 141.894 176.832 139.18 174.048 132.402C171.608 126.495 140.579 81.1438 182.654 87.8727C184.201 87.5563 171.685 47.7946 132.31 47.2181C92.9352 46.6415 94.1797 95.6282 94.1797 95.6282"/><path stroke="#fff" stroke-linejoin="round" stroke-width="5.034" d="M117.08 148.869C111.596 155 113.213 156.076 102.245 158.333C91.1492 160.618 97.6742 164.689 101.921 165.758C107.082 167.052 119.021 168.88 127.093 157.58C129.554 154.135 127.079 148.651 123.704 147.259C122.073 146.584 119.893 145.74 117.095 148.876L117.08 148.869Z"/><path stroke="#fff" stroke-linecap="round" stroke-linejoin="round" stroke-width="5.034" d="M116.722 148.763C116.159 145.156 117.903 140.874 119.766 135.854C122.565 128.331 129.02 120.807 123.859 96.9219C120.012 79.1329 94.1867 93.2165 94.1867 95.6282C94.1867 98.0399 95.3539 107.863 93.7648 119.288C91.6766 134.209 103.257 146.823 116.588 145.536"/><path fill="#fff" stroke="#fff" stroke-width="1.68" d="M110.577 95.2695C110.457 96.0922 112.088 98.293 114.205 98.5883C116.321 98.8836 118.128 97.168 118.248 96.3383C118.367 95.5086 116.736 94.6086 114.62 94.3133C112.503 94.018 110.682 94.4539 110.577 95.2695V95.2695Z"/><path fill="#fff" stroke="#fff" stroke-width=".837" d="M175.011 93.5891C175.123 94.4118 173.499 96.6125 171.383 96.9079C169.266 97.2032 167.445 95.4875 167.34 94.6579C167.234 93.8282 168.852 92.9282 170.968 92.6329C173.084 92.3375 174.905 92.7735 175.011 93.5891Z"/><path stroke="#fff" stroke-linecap="round" stroke-linejoin="round" stroke-width="5.034" d="M182.577 87.8867C182.928 94.3555 181.184 98.75 180.959 105.634C180.636 115.632 185.727 127.079 178.055 138.54"/></g><defs><clipPath id="clip0_7_155"><rect width="180" height="180" fill="#fff" transform="translate(38 38)"/></clipPath></defs></svg>
        </g>
         
        <g transform="translate(1200, 0)">
          <svg xmlns="http://www.w3.org/2000/svg" width="256" height="256" fill="none" viewBox="0 0 256 256"><rect width="256" height="256" fill="#677EEB" rx="60"/><path fill="#F7FAFC" fill-rule="evenodd" d="M52.6582 165.183C50.7411 162.159 50.7122 158.307 52.5835 155.254L123.044 40.3196C126.963 33.927 136.426 34.4859 139.565 41.2954L203.934 180.926C206.322 186.107 203.573 192.203 198.108 193.843L97.9779 223.882C93.9492 225.09 89.6084 223.471 87.3564 219.918L52.6582 165.183ZM131.173 73.9256C131.852 70.5445 136.485 70.0569 137.853 73.2226L182.254 175.963C183.09 177.898 182.05 180.129 180.03 180.731L110.848 201.383C108.305 202.142 105.869 199.92 106.392 197.318L131.173 73.9256Z" clip-rule="evenodd"/></svg>
        </g>
         
        <g transform="translate(1500, 0)">
          <svg width="256" height="256" viewBox="0 0 256 256" fill="none" xmlns="http://www.w3.org/2000/svg">
<g clip-path="url(#clip0_307_145)">
<path d="M60 0C26.8629 0 0 26.8629 0 60V196C0 229.137 26.8629 256 60 256H168.46C166.681 250.757 165.288 242.454 164.504 232.977C163.829 224.825 163.605 215.806 163.979 207.107C163.878 205.821 163.817 204.985 163.817 204.985C163.817 204.985 161.943 192.375 159.246 182.016C158.052 177.418 156.693 173.26 155.266 170.85C154.531 169.607 155.346 164.499 157.397 156.934C158.597 159.005 163.66 167.866 164.677 170.722C165.822 173.95 166.062 174.875 166.062 174.875C166.062 174.875 163.285 160.603 158.729 152.275C159.728 148.908 160.921 145.187 162.271 141.209C163.849 143.976 167.436 150.33 168.732 153.341C168.852 153.62 168.96 153.882 169.039 154.098C169.223 154.62 169.378 155.063 169.517 155.469C170.248 157.587 170.426 158.261 170.426 158.261C170.426 158.261 170.155 156.875 169.651 154.737C169.438 153.834 169.173 152.772 168.878 151.641C167.73 147.232 165.986 141.46 163.753 136.937C169.485 107.143 187.934 68.1305 207.81 47.0689C209.523 45.2554 211.244 43.5577 212.968 42.0275C224.587 31.7274 236.36 28.2483 246.083 36.9095C253.117 43.1773 255.995 51.8346 256 61.8004V60C256 26.8629 229.137 0 196 0H60Z" fill="#D9D9D9"/>
<path d="M60 0C26.8629 0 0 26.8629 0 60V196C0 229.137 26.8629 256 60 256H168.46C166.681 250.757 165.288 242.454 164.504 232.977C163.829 224.825 163.605 215.806 163.979 207.107C163.878 205.821 163.817 204.985 163.817 204.985C163.817 204.985 161.943 192.375 159.246 182.016C158.052 177.418 156.693 173.26 155.266 170.85C154.531 169.607 155.346 164.499 157.397 156.934C158.597 159.005 163.66 167.866 164.677 170.722C165.822 173.95 166.062 174.875 166.062 174.875C166.062 174.875 163.285 160.603 158.729 152.275C159.728 148.908 160.921 145.187 162.271 141.209C163.849 143.976 167.436 150.33 168.732 153.341C168.852 153.62 168.96 153.882 169.039 154.098C169.223 154.62 169.378 155.063 169.517 155.469C170.248 157.587 170.426 158.261 170.426 158.261C170.426 158.261 170.155 156.875 169.651 154.737C169.438 153.834 169.173 152.772 168.878 151.641C167.73 147.232 165.986 141.46 163.753 136.937C169.485 107.143 187.934 68.1305 207.81 47.0689C209.523 45.2554 211.244 43.5577 212.968 42.0275C224.587 31.7274 236.36 28.2483 246.083 36.9095C253.117 43.1773 255.995 51.8346 256 61.8004V60C256 26.8629 229.137 0 196 0H60Z" fill="url(#paint0_linear_307_145)"/>
<path d="M246.083 36.9095C236.36 28.2483 224.587 31.7274 212.968 42.0275C211.244 43.5577 209.523 45.2554 207.81 47.0689C187.934 68.1305 169.485 107.143 163.753 136.937C165.986 141.46 167.73 147.232 168.878 151.641C169.173 152.772 169.438 153.834 169.651 154.737C170.155 156.875 170.426 158.261 170.426 158.261C170.426 158.261 170.248 157.587 169.517 155.469C169.378 155.063 169.223 154.62 169.039 154.098C168.96 153.882 168.852 153.62 168.732 153.341C167.436 150.33 163.849 143.976 162.271 141.209C160.921 145.187 159.728 148.908 158.729 152.275C163.285 160.603 166.062 174.875 166.062 174.875C166.062 174.875 165.822 173.95 164.677 170.722C163.66 167.866 158.597 159.005 157.397 156.934C155.346 164.499 154.531 169.607 155.266 170.85C156.693 173.26 158.052 177.418 159.246 182.016C161.943 192.375 163.817 204.985 163.817 204.985C163.817 204.985 163.878 205.821 163.979 207.107C163.605 215.806 163.829 224.825 164.504 232.977C165.397 243.768 167.079 253.039 169.223 258L170.678 257.207C167.53 247.433 166.251 234.623 166.811 219.849C167.658 197.268 172.861 170.036 182.473 141.653C198.713 98.8063 221.245 64.4287 241.867 48.0113C223.071 64.9667 197.632 119.85 190.017 140.174C181.491 162.933 175.448 184.291 171.807 204.753C178.09 185.57 198.405 177.324 198.405 177.324C198.405 177.324 208.369 165.05 220.013 147.514C213.038 149.103 201.585 151.823 197.748 153.433C192.09 155.804 190.565 156.613 190.565 156.613C190.565 156.613 208.895 145.463 224.621 140.415C246.249 106.39 269.811 58.0531 246.083 36.9095" fill="#003B57"/>
<path d="M28.5202 49C25.4571 49 22.9663 49.8947 21.0568 51.6832C19.1473 53.4733 18.1786 55.8197 18.1786 58.6947C18.1786 60.1847 18.4192 61.5432 18.8932 62.788C19.3672 64.0354 20.1048 65.1909 21.0965 66.235C22.0882 67.2801 24.0732 68.6997 27.0315 70.5046C30.6616 72.6912 33.0372 74.4658 34.1773 75.8514C35.3183 77.2358 35.8844 78.6867 35.8844 80.1993C35.8844 82.2246 35.2087 83.8412 33.8201 85.0565C32.429 86.2722 30.5687 86.8779 28.2622 86.8779C25.8294 86.8779 23.7103 86.0317 21.8905 84.3514C20.0707 82.6686 19.1521 80.4429 19.1314 77.6532H18V87.7788H19.1314C19.4768 86.82 19.9548 86.3295 20.5804 86.3295C20.8814 86.3295 21.5864 86.5343 22.6845 86.917C25.3562 87.855 27.55 88.3076 29.2745 88.3076C32.2464 88.3076 34.7832 87.2806 36.8967 85.1935C39.0071 83.1074 40.0727 80.591 40.0727 77.6532C40.0727 75.3752 39.3692 73.3485 37.9885 71.5818C36.6077 69.813 33.9225 67.7556 29.9097 65.3929C26.4567 63.3459 24.2153 61.6787 23.1807 60.379C22.1446 59.0812 21.6126 57.6456 21.6126 56.0703C21.6126 54.3664 22.247 52.9977 23.4983 51.977C24.7496 50.9554 26.3892 50.4493 28.4408 50.4493C30.7497 50.4493 32.6743 51.1254 34.1972 52.4862C35.7185 53.8493 36.5982 55.7383 36.857 58.1659H37.9885V49.3917H36.9364C36.8078 49.839 36.6887 50.125 36.5791 50.2535C36.4727 50.3812 36.2679 50.4493 35.9638 50.4493C35.5978 50.4493 34.9451 50.2973 34.0186 49.9988C32.0336 49.3392 30.2035 49 28.5202 49ZM65.4999 49C61.7674 49 58.3787 49.868 55.3171 51.6048C52.2507 53.3385 49.8235 55.7459 48.0323 58.8122C46.2419 61.8782 45.3526 65.1346 45.3526 68.6048C45.3526 73.2671 46.8993 77.4206 50.0173 81.0611C53.1368 84.6993 56.8749 86.9663 61.2124 87.8376C62.2041 88.3474 63.6229 89.6635 65.48 91.7938C67.573 94.1978 69.3435 95.9318 70.7997 96.9643C72.2543 97.9974 73.8248 98.7545 75.4842 99.2558C77.1452 99.7549 78.9412 100 80.8832 100C83.235 100 85.3406 99.5967 87.1954 98.7661L86.7785 97.7477C85.7019 98.1309 84.5538 98.3157 83.3446 98.3157C81.7034 98.3157 80.0448 97.7817 78.3822 96.7097C76.722 95.635 74.6457 93.5846 72.1693 90.5599C71.0053 89.1106 70.2018 88.1962 69.7477 87.8376C74.4933 86.9232 78.3957 84.6538 81.439 81.0219C84.4816 77.3916 86.0044 73.2484 86.0044 68.6048C86.0044 63.0913 84.0163 58.4576 80.0694 54.6797C76.1194 50.9015 71.2618 49 65.4999 49ZM88.5848 49L88.6444 50.1947C91.1295 50.1947 92.5214 50.917 92.8326 52.3687C92.9485 52.8881 93.0017 53.8471 93.0113 55.2281L92.9914 81.6486C92.9708 83.6219 92.6858 84.8818 92.1379 85.4286C91.5893 85.9715 90.6619 86.3115 89.3193 86.447L89.2598 87.6417H114.032L114.667 81.6486H113.536C113.213 83.2812 112.472 84.4508 111.293 85.1152C110.11 85.7845 108.02 86.1141 105 86.1141H102.658C99.9412 86.1141 98.3691 85.1449 97.9539 83.1959C97.8681 82.8103 97.8387 82.3968 97.8348 81.9424L97.934 55.2281C97.9334 53.258 98.1857 51.9378 98.7081 51.2915C99.2361 50.6475 100.188 50.2871 101.566 50.1947L101.507 49H88.5849H88.5848ZM65.8969 50.4493C70.1065 50.4493 73.5437 52.0852 76.1988 55.3848C78.853 58.6855 80.1687 63.2094 80.1687 68.9378C80.1687 74.366 78.834 78.7123 76.1591 81.9816C73.4841 85.2498 69.9239 86.8779 65.4999 86.8779C61.2497 86.8779 57.803 85.199 55.1583 81.8249C52.5159 78.4507 51.2082 74.0701 51.2082 68.6832C51.2082 63.1476 52.5318 58.7164 55.198 55.4044C57.8626 52.0959 61.4307 50.4493 65.8969 50.4493ZM122.865 56.129C122.261 56.129 121.8 56.3304 121.456 56.7362C121.103 57.1404 120.995 57.63 121.118 58.2247C121.237 58.8015 121.567 59.307 122.091 59.7327C122.612 60.158 123.174 60.379 123.778 60.379C124.362 60.379 124.808 60.158 125.128 59.7327C125.448 59.307 125.545 58.8015 125.426 58.2247C125.302 57.63 124.984 57.1404 124.493 56.7362C123.996 56.3304 123.449 56.129 122.865 56.129ZM139.201 60.1832C138.174 64.08 135.949 66.1888 132.532 66.5288L132.571 67.6452H136.561L136.482 80.8456C136.488 83.1025 136.558 84.605 136.72 85.3698C137.113 87.2007 138.325 88.1313 140.352 88.1313C143.286 88.1313 146.364 86.368 149.582 82.8433L148.61 82.0207C146.286 84.3419 144.231 85.5069 142.437 85.5069C141.334 85.5069 140.65 84.8811 140.392 83.6463C140.321 83.3464 140.293 82.996 140.293 82.5887L140.333 67.6452H146.426L146.367 65.8629H140.352V60.1832H139.201H139.201ZM162.762 65.1578C159.354 65.1578 156.581 66.7905 154.426 70.0346C152.281 73.2842 151.617 76.8845 152.461 80.8456C152.957 83.1658 153.945 84.9641 155.458 86.2316C156.968 87.4985 158.884 88.1313 161.174 88.1313C163.307 88.1313 166.277 87.5985 167.526 86.5253C168.779 85.4528 169.934 83.7152 171 81.3353L170.146 80.4539C168.446 83.5413 165.013 85.0956 162.425 85.0956C158.866 85.0956 156.687 83.1692 155.875 79.3376C155.769 78.8485 155.69 78.323 155.636 77.7707C159.87 77.1094 163.078 75.9383 165.244 74.2454C167.407 72.5516 169.58 70.7562 169.174 68.8594C168.932 67.7324 168.339 66.8462 167.427 66.1763C166.503 65.5067 164.103 65.1578 162.762 65.1578ZM125.505 65.2949L118.161 66.9597V68.2523L120.701 67.9389C121.932 67.9389 122.656 68.4888 122.885 69.5841C122.962 69.9507 123.01 70.4654 123.024 71.1118L122.944 82.9608C122.924 84.6005 122.739 85.5537 122.369 85.8399C121.995 86.1266 121.009 86.2707 119.411 86.2707L119.371 87.3871H131.023L131.003 86.2707C129.384 86.2707 128.335 86.1447 127.867 85.8986C127.407 85.6541 127.091 85.2091 126.954 84.5276C126.848 84.0365 126.802 83.1903 126.795 82.0207L126.835 65.2949H125.505H125.505ZM160.897 67.4885C161.606 67.4885 162.291 67.7587 162.981 68.2915C163.661 68.8224 164.076 69.4128 164.211 70.0541C164.876 73.2043 162.045 75.3822 155.676 76.5956C155.494 74.2986 155.898 72.2134 156.927 70.3283C157.948 68.4451 159.278 67.4885 160.897 67.4885Z" fill="#003B57"/>
</g>
<defs>
<linearGradient id="paint0_linear_307_145" x1="147.614" y1="5.2389" x2="147.614" y2="241.763" gradientUnits="userSpaceOnUse">
<stop stop-color="#97D9F6"/>
<stop offset="0.920245" stop-color="#0F80CC"/>
<stop offset="1" stop-color="#0F80CC"/>
</linearGradient>
<clipPath id="clip0_307_145">
<rect width="256" height="256" rx="60" fill="white"/>
</clipPath>
</defs>
</svg>

        </g>
         
        <g transform="translate(1800, 0)">
          <svg xmlns="http://www.w3.org/2000/svg" width="256" height="256" fill="none" viewBox="0 0 256 256"><rect width="256" height="256" fill="#F4F2ED" rx="60"/><g clip-path="url(#clip0_147_969)"><path fill="url(#paint0_linear_147_969)" d="M144.757 223.193C139.696 229.566 129.434 226.074 129.312 217.936L127.529 98.9075H207.564C222.06 98.9075 230.145 115.651 221.131 127.004L144.757 223.193Z"/><path fill="url(#paint1_linear_147_969)" fill-opacity=".2" d="M144.757 223.193C139.696 229.566 129.434 226.074 129.312 217.936L127.529 98.9075H207.564C222.06 98.9075 230.145 115.651 221.131 127.004L144.757 223.193Z"/><path fill="#3ECF8E" d="M112.207 31.6655C117.268 25.2914 127.53 28.784 127.652 36.9221L128.434 155.951H49.4003C34.9034 155.951 26.8182 139.207 35.8328 127.854L112.207 31.6655Z"/></g><defs><linearGradient id="paint0_linear_147_969" x1="127.529" x2="198.661" y1="125.299" y2="155.132" gradientUnits="userSpaceOnUse"><stop stop-color="#249361"/><stop offset="1" stop-color="#3ECF8E"/></linearGradient><linearGradient id="paint1_linear_147_969" x1="95.993" x2="128.433" y1="82.12" y2="143.187" gradientUnits="userSpaceOnUse"><stop/><stop offset="1" stop-opacity="0"/></linearGradient><clipPath id="clip0_147_969"><rect width="192.92" height="200" fill="#fff" transform="translate(32 28)"/></clipPath></defs></svg>
        </g>
        
  </svg>
  