
  <svg width="329.25" height="48" viewBox="0 0 1756 256" fill="none" xmlns="http://www.w3.org/2000/svg" xmlns:xlink="http://www.w3.org/1999/xlink" version="1.1">
    
        <g transform="translate(0, 0)">
          <svg xmlns="http://www.w3.org/2000/svg" width="256" height="256" fill="none" viewBox="0 0 256 256"><rect width="256" height="256" fill="#F4F2ED" rx="60"/><path fill="#252F3E" d="M84.7447 111.961C84.7447 114.395 85.0079 116.368 85.4684 117.816C85.9947 119.263 86.6526 120.842 87.5737 122.553C87.9026 123.079 88.0342 123.605 88.0342 124.066C88.0342 124.724 87.6395 125.382 86.7842 126.039L82.6395 128.803C82.0474 129.197 81.4553 129.395 80.929 129.395C80.2711 129.395 79.6132 129.066 78.9553 128.474C78.0342 127.487 77.2447 126.434 76.5869 125.382C75.929 124.263 75.2711 123.013 74.5474 121.5C69.4158 127.553 62.9684 130.579 55.2053 130.579C49.679 130.579 45.2711 129 42.0474 125.842C38.8237 122.684 37.179 118.474 37.179 113.211C37.179 107.618 39.1526 103.079 43.1658 99.6579C47.179 96.2368 52.5079 94.5263 59.2842 94.5263C61.5211 94.5263 63.8237 94.7237 66.2579 95.0526C68.6921 95.3816 71.1921 95.9079 73.8237 96.5V91.6974C73.8237 86.6974 72.7711 83.2105 70.7316 81.1711C68.6263 79.1316 65.0737 78.1447 60.0079 78.1447C57.7053 78.1447 55.3368 78.4079 52.9026 79C50.4684 79.5921 48.1 80.3158 45.7974 81.2368C44.7447 81.6974 43.9553 81.9605 43.4947 82.0921C43.0342 82.2237 42.7053 82.2895 42.4421 82.2895C41.5211 82.2895 41.0605 81.6316 41.0605 80.25V77.0263C41.0605 75.9737 41.1921 75.1842 41.5211 74.7237C41.85 74.2632 42.4421 73.8026 43.3632 73.3421C45.6658 72.1579 48.429 71.1711 51.6526 70.3816C54.8763 69.5263 58.2974 69.1316 61.9158 69.1316C69.7447 69.1316 75.4684 70.9079 79.1526 74.4605C82.7711 78.0132 84.6132 83.4079 84.6132 90.6447V111.961H84.7447ZM58.0342 121.961C60.2053 121.961 62.4421 121.566 64.8105 120.776C67.179 119.987 69.2842 118.539 71.0605 116.566C72.1132 115.316 72.9026 113.934 73.2974 112.355C73.6921 110.776 73.9553 108.868 73.9553 106.632V103.868C72.0474 103.408 70.0079 103.013 67.9026 102.75C65.7974 102.487 63.7579 102.355 61.7184 102.355C57.3105 102.355 54.0868 103.211 51.9158 104.987C49.7447 106.763 48.6921 109.263 48.6921 112.553C48.6921 115.645 49.4816 117.947 51.1263 119.526C52.7053 121.171 55.0079 121.961 58.0342 121.961ZM110.863 129.066C109.679 129.066 108.889 128.868 108.363 128.408C107.837 128.013 107.376 127.092 106.982 125.842L91.5211 74.9868C91.1263 73.6711 90.929 72.8158 90.929 72.3553C90.929 71.3026 91.4553 70.7105 92.5079 70.7105H98.9553C100.205 70.7105 101.061 70.9079 101.521 71.3684C102.047 71.7632 102.442 72.6842 102.837 73.9342L113.889 117.487L124.153 73.9342C124.482 72.6184 124.876 71.7632 125.403 71.3684C125.929 70.9737 126.85 70.7105 128.034 70.7105H133.297C134.547 70.7105 135.403 70.9079 135.929 71.3684C136.455 71.7632 136.916 72.6842 137.179 73.9342L147.574 118.013L158.955 73.9342C159.35 72.6184 159.811 71.7632 160.271 71.3684C160.797 70.9737 161.653 70.7105 162.837 70.7105H168.955C170.008 70.7105 170.6 71.2368 170.6 72.3553C170.6 72.6842 170.534 73.0132 170.468 73.4079C170.403 73.8026 170.271 74.3289 170.008 75.0526L154.153 125.908C153.758 127.224 153.297 128.079 152.771 128.474C152.245 128.868 151.389 129.132 150.271 129.132H144.613C143.363 129.132 142.508 128.934 141.982 128.474C141.455 128.013 140.995 127.158 140.732 125.842L130.534 83.4079L120.403 125.776C120.074 127.092 119.679 127.947 119.153 128.408C118.626 128.868 117.705 129.066 116.521 129.066H110.863ZM195.403 130.842C191.982 130.842 188.561 130.447 185.271 129.658C181.982 128.868 179.416 128.013 177.705 127.026C176.653 126.434 175.929 125.776 175.666 125.184C175.403 124.592 175.271 123.934 175.271 123.342V119.987C175.271 118.605 175.797 117.947 176.784 117.947C177.179 117.947 177.574 118.013 177.968 118.145C178.363 118.276 178.955 118.539 179.613 118.803C181.85 119.789 184.284 120.579 186.85 121.105C189.482 121.632 192.047 121.895 194.679 121.895C198.824 121.895 202.047 121.171 204.284 119.724C206.521 118.276 207.705 116.171 207.705 113.474C207.705 111.632 207.113 110.118 205.929 108.868C204.745 107.618 202.508 106.5 199.284 105.447L189.745 102.487C184.942 100.974 181.389 98.7368 179.218 95.7763C177.047 92.8816 175.929 89.6579 175.929 86.2368C175.929 83.4737 176.521 81.0395 177.705 78.9342C178.889 76.8289 180.468 74.9868 182.442 73.5395C184.416 72.0263 186.653 70.9079 189.284 70.1184C191.916 69.3289 194.679 69 197.574 69C199.021 69 200.534 69.0658 201.982 69.2632C203.495 69.4605 204.876 69.7237 206.258 69.9868C207.574 70.3158 208.824 70.6447 210.008 71.0395C211.192 71.4342 212.113 71.8289 212.771 72.2237C213.692 72.75 214.35 73.2763 214.745 73.8684C215.139 74.3947 215.337 75.1184 215.337 76.0395V79.1316C215.337 80.5132 214.811 81.2368 213.824 81.2368C213.297 81.2368 212.442 80.9737 211.324 80.4474C207.574 78.7368 203.363 77.8816 198.692 77.8816C194.942 77.8816 191.982 78.4737 189.942 79.7237C187.903 80.9737 186.85 82.8816 186.85 85.5789C186.85 87.4211 187.508 89 188.824 90.25C190.139 91.5 192.574 92.75 196.061 93.8684L205.403 96.8289C210.139 98.3421 213.561 100.447 215.6 103.145C217.639 105.842 218.626 108.934 218.626 112.355C218.626 115.184 218.034 117.75 216.916 119.987C215.732 122.224 214.153 124.197 212.113 125.776C210.074 127.421 207.639 128.605 204.811 129.461C201.85 130.382 198.758 130.842 195.403 130.842Z"/><path fill="#F90" fill-rule="evenodd" d="M207.837 162.816C186.192 178.803 154.745 187.29 127.705 187.29C89.8105 187.29 55.6658 173.276 29.8763 149.987C27.8369 148.145 29.679 145.645 32.1132 147.092C60.0079 163.276 94.4158 173.079 130.008 173.079C154.021 173.079 180.403 168.079 204.679 157.816C208.297 156.171 211.389 160.184 207.837 162.816Z" clip-rule="evenodd"/><path fill="#F90" fill-rule="evenodd" d="M216.85 152.553C214.087 149 198.561 150.842 191.521 151.697C189.416 151.961 189.087 150.118 190.995 148.737C203.363 140.053 223.692 142.553 226.061 145.447C228.429 148.408 225.403 168.737 213.824 178.474C212.047 179.987 210.337 179.197 211.126 177.224C213.758 170.711 219.613 156.039 216.85 152.553Z" clip-rule="evenodd"/></svg>
        </g>
         
        <g transform="translate(300, 0)">
          <svg xmlns="http://www.w3.org/2000/svg" width="256" height="256" fill="none" viewBox="0 0 256 256"><rect width="256" height="256" fill="#F4F2ED" rx="60"/><path fill="url(#paint0_linear_159_744)" d="M94.6743 34.0023H153.856L92.4196 216.032C91.7882 217.902 90.586 219.528 88.9824 220.679C87.3788 221.831 85.4545 222.45 83.4803 222.451H37.4223C35.9265 222.451 34.4522 222.095 33.1213 221.412C31.7904 220.729 30.6411 219.74 29.7687 218.525C28.8962 217.31 28.3256 215.905 28.104 214.425C27.8824 212.946 28.0162 211.435 28.4943 210.018L85.7327 40.4209C86.3639 38.5497 87.5662 36.9236 89.1703 35.7717C90.7744 34.6198 92.6995 34.0001 94.6743 34V34.0023Z"/><path fill="#0078D4" d="M180.674 156.095H86.8261C85.9536 156.094 85.101 156.356 84.3795 156.847C83.6579 157.337 83.1008 158.034 82.7807 158.845C82.4606 159.657 82.3923 160.546 82.5848 161.397C82.7773 162.248 83.2217 163.022 83.86 163.616L144.165 219.903C145.92 221.54 148.232 222.451 150.633 222.451H203.774L180.674 156.095Z"/><path fill="url(#paint1_linear_159_744)" d="M94.6745 34.0023C92.6781 33.9946 90.7315 34.6255 89.1192 35.8028C87.5068 36.98 86.3131 38.642 85.7125 40.5459L28.5649 209.863C28.0546 211.286 27.8944 212.81 28.0979 214.308C28.3013 215.805 28.8624 217.232 29.7337 218.466C30.6051 219.701 31.7609 220.708 33.1036 221.401C34.4463 222.095 35.9362 222.455 37.4474 222.451H84.6942C86.4539 222.136 88.0986 221.36 89.4603 220.202C90.822 219.044 91.8519 217.546 92.4448 215.859L103.841 182.273L144.549 220.241C146.255 221.652 148.395 222.433 150.608 222.451H203.551L180.331 156.096L112.642 156.112L154.07 34.0023H94.6745Z"/><path fill="url(#paint2_linear_159_744)" d="M170.264 40.4118C169.634 38.5435 168.434 36.9201 166.832 35.7702C165.23 34.6204 163.308 34.002 161.336 34.0022H95.3792C97.3508 34.0023 99.2727 34.6208 100.874 35.7707C102.476 36.9205 103.677 38.5437 104.307 40.4118L161.548 210.016C162.026 211.433 162.16 212.944 161.939 214.424C161.718 215.904 161.147 217.309 160.275 218.525C159.402 219.74 158.253 220.73 156.922 221.413C155.591 222.096 154.116 222.453 152.62 222.453H218.579C220.075 222.452 221.55 222.096 222.88 221.413C224.211 220.729 225.36 219.739 226.233 218.524C227.105 217.308 227.675 215.903 227.896 214.423C228.118 212.944 227.984 211.433 227.505 210.016L170.264 40.4118Z"/><defs><linearGradient id="paint0_linear_159_744" x1="116.244" x2="54.783" y1="47.967" y2="229.54" gradientUnits="userSpaceOnUse"><stop stop-color="#114A8B"/><stop offset="1" stop-color="#0669BC"/></linearGradient><linearGradient id="paint1_linear_159_744" x1="135.444" x2="121.227" y1="132.585" y2="137.392" gradientUnits="userSpaceOnUse"><stop stop-opacity=".3"/><stop offset=".071" stop-opacity=".2"/><stop offset=".321" stop-opacity=".1"/><stop offset=".623" stop-opacity=".05"/><stop offset="1" stop-opacity="0"/></linearGradient><linearGradient id="paint2_linear_159_744" x1="127.625" x2="195.091" y1="42.671" y2="222.414" gradientUnits="userSpaceOnUse"><stop stop-color="#3CCBF4"/><stop offset="1" stop-color="#2892DF"/></linearGradient></defs></svg>
        </g>
         
        <g transform="translate(600, 0)">
          <svg xmlns="http://www.w3.org/2000/svg" width="256" height="256" fill="none" viewBox="0 0 256 256"><rect width="256" height="256" fill="#F4F2ED" rx="60"/><g clip-path="url(#clip0_4_271)"><path fill="#fff" d="M79 171.75H211.356V135.125L186.212 120.706L181.875 118.831L79 119.537V171.75Z"/><path fill="#F38020" d="M165.575 166.887C166.806 162.669 166.338 158.8 164.288 155.925C162.413 153.287 159.244 151.762 155.438 151.587L83.2813 150.65C82.8125 150.65 82.4063 150.412 82.1688 150.062C81.9313 149.712 81.875 149.25 81.9938 148.775C82.2313 148.069 82.9313 147.544 83.6938 147.487L156.494 146.55C165.119 146.137 174.494 139.162 177.769 130.612L181.931 119.769C182.115 119.323 182.158 118.833 182.056 118.362C177.369 97.1437 158.431 81.3187 135.806 81.3187C114.931 81.3187 97.2438 94.8 90.9063 113.506C86.8 110.456 81.5313 108.819 75.9563 109.344C65.9313 110.344 57.8313 118.369 56.9063 128.394C56.6634 130.887 56.8408 133.403 57.4313 135.837C49.5447 136.051 42.0537 139.337 36.5556 144.995C31.0574 150.653 27.9874 158.236 28 166.125C28 167.587 28.125 169.062 28.2938 170.519C28.4188 171.225 29 171.75 29.7 171.75H162.875C163.258 171.743 163.629 171.614 163.934 171.383C164.24 171.151 164.464 170.829 164.575 170.462L165.575 166.887V166.887Z"/><path fill="#FAAE40" d="M188.55 120.519L186.55 120.581C186.081 120.581 185.675 120.931 185.487 121.394L182.675 131.181C181.444 135.4 181.912 139.269 183.962 142.144C185.837 144.781 189.006 146.306 192.812 146.481L208.169 147.419C208.637 147.419 209.044 147.656 209.281 148.006C209.519 148.356 209.575 148.881 209.456 149.294C209.219 150 208.519 150.525 207.756 150.581L191.756 151.519C183.081 151.931 173.756 158.906 170.481 167.456L169.306 170.444C169.069 171.031 169.481 171.619 170.119 171.619H225.1C225.418 171.623 225.729 171.522 225.983 171.331C226.238 171.14 226.422 170.869 226.506 170.562C227.481 167.096 227.983 163.513 228 159.912C227.97 149.465 223.802 139.454 216.409 132.072C209.015 124.69 198.998 120.538 188.55 120.525"/></g><defs><clipPath id="clip0_4_271"><rect width="200" height="200" fill="#fff" transform="translate(28 28)"/></clipPath></defs></svg>
        </g>
         
        <g transform="translate(900, 0)">
          <svg xmlns="http://www.w3.org/2000/svg" width="256" height="256" fill="none" viewBox="0 0 256 256"><rect width="256" height="256" fill="#F4F2ED" rx="60"/><path fill="#EA4335" d="M161.009 92.3895L178.394 75.0043L179.553 67.684C147.873 38.877 97.5124 42.1434 68.9538 74.4997C61.021 83.4864 55.1358 94.6903 51.9976 106.26L58.2241 105.382L92.9937 99.6489L95.678 96.9036C111.144 79.9176 137.295 77.6325 155.153 92.0848L161.009 92.3895Z"/><path fill="#4285F4" d="M203.16 105.749C199.164 91.033 190.96 77.8041 179.553 67.6846L155.153 92.0846C165.456 100.503 171.326 113.186 171.074 126.489V130.82C183.067 130.82 192.79 140.542 192.79 152.535C192.79 164.529 183.067 174.008 171.074 174.008H127.581L123.311 178.644V204.691L127.581 208.778H171.074C202.269 209.021 227.755 184.173 227.998 152.978C228.145 134.069 218.823 116.342 203.16 105.749Z"/><path fill="#34A853" d="M84.1488 208.778H127.581V174.008H84.1488C81.0543 174.007 78.0574 173.342 75.2433 172.056L69.0816 173.947L51.5746 191.332L50.0496 197.249C59.8675 204.662 71.8464 208.831 84.1488 208.778Z"/><path fill="#FBBC05" d="M84.1487 95.9886C52.9526 96.1746 27.8151 121.615 28.001 152.811C28.1049 170.231 36.2409 186.629 50.0495 197.249L75.2432 172.056C64.3128 167.118 59.4557 154.254 64.394 143.325C69.3315 132.395 82.1956 127.538 93.1245 132.475C97.9409 134.651 101.798 138.509 103.974 143.325L129.167 118.132C118.448 104.118 101.792 95.9254 84.1487 95.9886Z"/></svg>
        </g>
         
        <g transform="translate(1200, 0)">
          <svg width="256" height="256" viewBox="0 0 256 256" fill="none" xmlns="http://www.w3.org/2000/svg">
<rect width="256" height="256" rx="60" fill="#F4F2ED"/>
<path d="M172.787 97.4052L172.714 97.3739C172.673 97.3583 172.631 97.3426 172.594 97.3061C172.534 97.2418 172.49 97.1647 172.465 97.0806C172.44 96.9965 172.434 96.9077 172.448 96.821L176.48 72.1699L195.389 91.0834L175.724 99.4499C175.669 99.4719 175.611 99.4826 175.552 99.4812H175.474C175.448 99.4656 175.421 99.4447 175.369 99.3925C174.637 98.5777 173.762 97.9041 172.787 97.4052V97.4052ZM200.213 95.903L220.431 116.12C224.63 120.325 226.732 122.421 227.499 124.852C227.613 125.212 227.707 125.572 227.78 125.942L179.464 105.48C179.438 105.469 179.412 105.459 179.386 105.448C179.193 105.37 178.968 105.281 178.968 105.083C178.968 104.885 179.198 104.791 179.391 104.713L179.453 104.687L200.213 95.903V95.903ZM226.956 132.431C225.913 134.392 223.879 136.427 220.436 139.874L197.642 162.663L168.161 156.524L168.004 156.493C167.743 156.451 167.467 156.404 167.467 156.169C167.355 154.953 166.994 153.773 166.406 152.702C165.818 151.632 165.016 150.694 164.05 149.947C163.93 149.827 163.962 149.639 163.998 149.467C163.998 149.441 163.998 149.415 164.009 149.394L169.553 115.354L169.574 115.239C169.606 114.978 169.652 114.676 169.887 114.676C171.075 114.528 172.222 114.145 173.261 113.549C174.3 112.954 175.21 112.158 175.938 111.207C175.985 111.155 176.016 111.097 176.079 111.066C176.246 110.988 176.444 111.066 176.616 111.139L226.951 132.431H226.956ZM192.4 167.905L154.917 205.388L161.333 165.955L161.343 165.902C161.349 165.85 161.359 165.798 161.375 165.751C161.427 165.626 161.562 165.574 161.693 165.522L161.755 165.496C163.16 164.896 164.403 163.972 165.381 162.799C165.506 162.653 165.657 162.512 165.85 162.486C165.9 162.478 165.951 162.478 166.001 162.486L192.394 167.911L192.4 167.905ZM146.983 213.322L142.758 217.547L96.0487 150.04C96.0318 150.016 96.0144 149.991 95.9965 149.967C95.9235 149.868 95.8453 149.769 95.8609 149.654C95.8661 149.571 95.9183 149.498 95.9757 149.435L96.0278 149.368C96.1687 149.159 96.2886 148.95 96.419 148.726L96.5234 148.543L96.539 148.528C96.612 148.403 96.6798 148.283 96.805 148.215C96.9146 148.163 97.0658 148.184 97.1858 148.21L148.934 158.882C149.079 158.904 149.215 158.963 149.331 159.054C149.399 159.122 149.414 159.195 149.43 159.278C149.791 160.644 150.463 161.908 151.393 162.971C152.323 164.034 153.486 164.868 154.792 165.407C154.938 165.48 154.875 165.642 154.808 165.814C154.774 165.889 154.748 165.968 154.729 166.049C154.077 170.013 148.486 204.115 146.983 213.322ZM138.158 222.142C135.044 225.225 133.208 226.857 131.132 227.515C129.085 228.162 126.888 228.162 124.841 227.515C122.411 226.743 120.309 224.646 116.11 220.442L69.2016 173.534L81.4542 154.531C81.5115 154.438 81.5689 154.354 81.6628 154.286C81.7932 154.192 81.981 154.234 82.1375 154.286C84.9498 155.135 87.9692 154.982 90.6814 153.853C90.8222 153.801 90.963 153.765 91.0726 153.864C91.1273 153.914 91.1763 153.97 91.2186 154.031L138.158 222.147V222.142ZM64.6793 169.011L53.9186 158.251L75.1688 149.185C75.2231 149.161 75.2817 149.149 75.3409 149.149C75.5183 149.149 75.6226 149.326 75.7165 149.488C75.9301 149.816 76.1563 150.136 76.3946 150.447L76.4624 150.531C76.525 150.619 76.4833 150.708 76.4207 150.792L64.6845 169.011H64.6793ZM49.1563 153.488L35.5424 139.874C33.2265 137.558 31.5469 135.879 30.3785 134.434L71.7732 143.02C71.8252 143.029 71.8773 143.038 71.9296 143.046C72.1852 143.087 72.4669 143.134 72.4669 143.374C72.4669 143.635 72.1591 143.755 71.8983 143.854L71.7784 143.906L49.1563 153.488ZM28 127.434C28.0472 126.557 28.2049 125.69 28.4694 124.852C29.2414 122.421 31.3383 120.325 35.5424 116.12L52.9641 98.6988C60.9855 110.34 69.0287 121.967 77.0935 133.579C77.2344 133.766 77.3908 133.975 77.2292 134.131C76.4676 134.971 75.7061 135.889 75.1688 136.886C75.1105 137.014 75.0208 137.125 74.908 137.209C74.8402 137.251 74.7672 137.235 74.6889 137.219H74.6785L28 127.429V127.434ZM57.6272 94.0356L81.0525 70.6103C83.2537 71.5753 91.2656 74.9605 98.4324 77.9858C103.857 80.2809 108.802 82.3673 110.356 83.0454C110.513 83.108 110.654 83.1706 110.721 83.3271C110.763 83.421 110.742 83.5409 110.721 83.64C110.351 85.331 110.406 87.0875 110.882 88.7518C111.358 90.4162 112.24 91.9361 113.449 93.175C113.606 93.3315 113.449 93.5558 113.314 93.7488L113.241 93.8583L89.4556 130.699C89.393 130.804 89.3356 130.892 89.2313 130.96C89.1061 131.038 88.9288 131.002 88.7827 130.965C87.8576 130.723 86.9066 130.593 85.9504 130.579C85.095 130.579 84.1665 130.736 83.2276 130.908H83.2224C83.1181 130.924 83.0242 130.944 82.9407 130.882C82.8486 130.807 82.7693 130.717 82.706 130.616L57.6272 94.0356V94.0356ZM85.7835 65.8794L116.11 35.5532C120.309 31.3543 122.411 29.2522 124.841 28.4854C126.888 27.8382 129.085 27.8382 131.132 28.4854C133.563 29.2522 135.665 31.3543 139.864 35.5532L146.436 42.1254L124.867 75.5291C124.814 75.6263 124.741 75.7115 124.654 75.7794C124.523 75.8681 124.341 75.8316 124.184 75.7794C122.484 75.2634 120.683 75.1694 118.938 75.5057C117.193 75.842 115.556 76.5983 114.169 77.7094C114.028 77.8554 113.82 77.772 113.642 77.6937C110.826 76.468 88.9183 67.2095 85.7835 65.8794V65.8794ZM151.016 46.7051L170.93 66.62L166.132 96.3411V96.4194C166.127 96.4871 166.113 96.5539 166.09 96.6176C166.038 96.7219 165.933 96.7428 165.829 96.7741C164.803 97.0849 163.837 97.5662 162.971 98.1981C162.933 98.2246 162.899 98.2543 162.866 98.2867C162.809 98.3493 162.752 98.4067 162.658 98.4171C162.581 98.4195 162.505 98.4071 162.433 98.3806L132.086 85.4865L132.029 85.4604C131.836 85.3822 131.607 85.2883 131.607 85.0901C131.428 83.399 130.876 81.7687 129.99 80.3174C129.844 80.0775 129.682 79.8271 129.807 79.5819L151.016 46.7051V46.7051ZM130.506 91.5945L158.954 103.644C159.111 103.717 159.283 103.784 159.351 103.946C159.378 104.043 159.378 104.146 159.351 104.243C159.267 104.661 159.194 105.135 159.194 105.615V106.413C159.194 106.612 158.991 106.695 158.803 106.773L158.746 106.794C154.239 108.719 95.4749 133.777 95.3862 133.777C95.2976 133.777 95.2037 133.777 95.115 133.688C94.9585 133.532 95.115 133.313 95.2558 133.114C95.2807 133.08 95.3051 133.045 95.3289 133.01L118.707 96.8106L118.749 96.748C118.885 96.5289 119.041 96.2838 119.291 96.2838L119.526 96.3203C120.058 96.3933 120.528 96.4611 121.002 96.4611C124.549 96.4611 127.835 94.7346 129.817 91.7823C129.865 91.7035 129.925 91.633 129.995 91.5737C130.136 91.4693 130.344 91.5215 130.506 91.5945V91.5945ZM97.9265 139.504L161.98 112.188C161.98 112.188 162.074 112.188 162.162 112.276C162.512 112.626 162.809 112.86 163.096 113.079L163.237 113.168C163.367 113.241 163.498 113.325 163.508 113.46C163.508 113.512 163.508 113.544 163.498 113.591L158.01 147.297L157.989 147.432C157.953 147.693 157.916 147.991 157.671 147.991C156.208 148.089 154.791 148.543 153.544 149.313C152.296 150.083 151.254 151.145 150.51 152.409L150.483 152.45C150.41 152.57 150.343 152.685 150.223 152.748C150.113 152.8 149.972 152.779 149.858 152.753L98.7767 142.216C98.7245 142.206 97.9838 139.509 97.9265 139.504V139.504Z" fill="url(#paint0_radial_267_114)"/>
<defs>
<radialGradient id="paint0_radial_267_114" cx="0" cy="0" r="1" gradientUnits="userSpaceOnUse" gradientTransform="translate(21.2925 125.178) rotate(90) scale(199.78 230.653)">
<stop stop-color="#20C6B7"/>
<stop offset="1" stop-color="#4D9ABF"/>
</radialGradient>
</defs>
</svg>

        </g>
         
        <g transform="translate(1500, 0)">
          <svg width="256" height="256" viewBox="0 0 256 256" fill="none" xmlns="http://www.w3.org/2000/svg">
<rect width="256" height="256" rx="60" fill="#F4F2ED"/>
<path d="M128 34L223 198.853H33L128 34Z" fill="black"/>
</svg>

        </g>
        
  </svg>
  