
  <svg width="385.5" height="48" viewBox="0 0 2056 256" fill="none" xmlns="http://www.w3.org/2000/svg" xmlns:xlink="http://www.w3.org/1999/xlink" version="1.1">
    
        <g transform="translate(0, 0)">
          <svg xmlns="http://www.w3.org/2000/svg" width="256" height="256" fill="none" viewBox="0 0 256 256"><rect width="256" height="256" fill="#00005B" rx="60"/><path fill="#99F" d="M105.157 156.12H65.4769L57.3702 181.293C57.1569 182.253 56.3035 182.893 55.3435 182.787H35.2902C34.1169 182.787 33.7969 182.147 34.1169 180.867L68.4635 82.4133C68.7835 81.3467 69.1035 80.3867 69.5302 79.1067C69.9569 76.8667 70.1702 74.52 70.1702 72.1733C70.0635 71.64 70.4902 71.1067 71.0235 71H71.3435H98.6502C99.3969 71 99.9302 71.32 100.037 71.8533L138.97 180.653C139.29 181.827 138.97 182.36 137.904 182.36H115.61C114.864 182.467 114.117 181.933 113.904 181.187L105.157 155.587V156.12ZM71.6635 134.893H98.7568C98.1168 132.653 97.2635 129.987 96.3035 127.213C95.3435 124.333 94.3835 121.24 93.4235 118.04C92.3569 114.733 91.3968 111.533 90.3302 108.227C89.2635 104.92 88.3035 101.827 87.4502 98.7333C86.5969 95.7467 85.8502 92.9733 85.1035 90.4133H84.8902C83.9302 95 82.7569 99.5867 81.2635 104.173C79.6635 109.293 78.0635 114.627 76.3569 119.96C74.9702 125.4 73.2635 130.413 71.6635 134.893V134.893Z"/><path fill="#99F" d="M201.797 146.52H167.984C168.41 149.827 169.477 153.133 171.29 156.013C173.21 158.893 175.877 161.133 179.077 162.413C183.344 164.227 188.037 165.187 192.73 165.08C196.464 164.973 200.197 164.653 203.824 163.907C207.13 163.48 210.33 162.627 213.317 161.453C213.85 161.027 214.17 161.24 214.17 162.307V178.627C214.17 179.053 214.064 179.48 213.957 179.907C213.744 180.227 213.53 180.44 213.21 180.653C209.797 182.147 206.277 183.213 202.544 183.853C197.53 184.813 192.517 185.24 187.397 185.133C179.29 185.133 172.464 183.853 166.917 181.4C161.69 179.16 157.104 175.64 153.477 171.267C150.064 167.107 147.61 162.413 146.117 157.293C144.624 152.28 143.877 147.053 143.877 141.72C143.877 135.96 144.73 130.307 146.544 124.76C148.25 119.427 150.917 114.52 154.544 110.147C158.064 105.88 162.437 102.467 167.45 100.013C172.464 97.56 178.437 96.7067 185.264 96.7067C190.917 96.6 196.57 97.6667 201.797 100.013C206.17 101.933 210.01 104.813 212.997 108.547C215.77 112.173 218.01 116.227 219.397 120.707C220.784 124.973 221.424 129.347 221.424 133.72C221.424 136.28 221.317 138.52 221.21 140.547C220.997 142.573 220.89 144.067 220.784 145.027C220.677 145.773 220.037 146.413 219.29 146.413C218.65 146.413 217.477 146.52 215.77 146.627C214.064 146.84 212.037 146.947 209.584 146.947C207.13 146.947 204.57 146.52 201.797 146.52V146.52ZM167.984 130.947H190.49C193.264 130.947 195.29 130.947 196.57 130.84C197.424 130.733 198.277 130.52 199.024 129.987V128.92C199.024 127.533 198.81 126.253 198.384 124.973C196.464 119 190.81 114.947 184.517 115.16C178.65 114.84 173.104 117.933 170.33 123.267C169.05 125.72 168.304 128.28 167.984 130.947Z"/></svg>
        </g>
         
        <g transform="translate(300, 0)">
          <svg xmlns="http://www.w3.org/2000/svg" width="256" height="256" fill="none" viewBox="0 0 256 256"><rect width="256" height="256" fill="#300" rx="60"/><path fill="#FF9A00" d="M123.733 152.333H84.053L75.9464 177.4C75.733 178.36 74.8797 179 73.9197 178.893H53.8664C52.693 178.893 52.373 178.253 52.693 176.973L87.0397 78.0935C87.3597 77.0268 87.6797 75.8535 88.1064 74.5735C88.533 72.3335 88.7464 69.9868 88.7464 67.6401C88.6397 67.1068 89.0664 66.5735 89.5997 66.4668H89.9197H117.226C118.08 66.4668 118.506 66.7868 118.613 67.3201L157.546 177.187C157.866 178.36 157.546 178.893 156.48 178.893H134.186C133.44 179 132.693 178.467 132.48 177.72L123.733 152.333V152.333ZM90.2397 130.68H117.333C116.693 128.44 115.84 125.773 114.88 123C113.92 120.12 112.96 117.027 112 113.827C110.933 110.52 109.973 107.32 108.906 104.013C107.84 100.707 106.88 97.6135 106.026 94.5201C105.173 91.5335 104.426 88.7601 103.68 86.2001H103.466C102.506 90.7868 101.333 95.3735 99.8397 99.9601C98.2397 105.08 96.6397 110.413 94.933 115.747C93.4397 121.187 91.8397 126.2 90.2397 130.68V130.68Z"/><path fill="#FF9A00" d="M181.333 85.1334C177.813 85.2401 174.4 83.8534 171.84 81.4001C169.387 78.7334 168.107 75.2134 168.213 71.5868C168.107 67.9601 169.493 64.5468 172.053 62.0934C174.613 59.6401 178.027 58.3601 181.547 58.3601C185.707 58.3601 188.907 59.6401 191.253 62.0934C193.6 64.6534 194.88 68.0668 194.773 71.5868C194.88 75.2134 193.6 78.7334 191.04 81.4001C188.587 83.9601 184.96 85.3468 181.333 85.1334ZM169.387 177.72V95.5868C169.387 94.5201 169.813 94.0934 170.773 94.0934H191.893C192.853 94.0934 193.28 94.6268 193.28 95.5868V177.72C193.28 178.893 192.853 179.427 191.893 179.427H170.987C169.92 179.427 169.387 178.787 169.387 177.72V177.72Z"/></svg>
        </g>
         
        <g transform="translate(600, 0)">
          <svg width="256" height="256" viewBox="0 0 256 256" fill="none" xmlns="http://www.w3.org/2000/svg">
<rect width="256" height="256" rx="60" fill="#00005B"/>
<path d="M105.208 156.5H65.5082L57.4082 181.7C57.2082 182.7 56.3082 183.3 55.4082 183.2H35.3082C34.1082 183.2 33.8082 182.6 34.1082 181.3L68.5082 82.5C68.8082 81.4 69.1082 80.3 69.6082 79C70.1082 76.8 70.5082 74.5 70.5082 72.2C70.4082 71.7 70.8082 71.1 71.4082 71C71.5082 71 71.6082 71 71.7082 71H99.1082C99.8082 71 100.408 71.3 100.508 71.9L139.308 181.5C139.608 182.7 139.308 183.2 138.208 183.2H115.908C115.208 183.3 114.408 182.8 114.208 182L105.208 156.5ZM71.7082 135.2H98.8082C98.2082 133 97.3082 130.3 96.3082 127.5C95.3082 124.6 94.4082 121.5 93.4082 118.3C92.3082 115 91.4082 111.8 90.3082 108.5C89.2082 105.2 88.3082 102.1 87.4082 99C86.5082 96 85.8082 93.2 85.0082 90.7H84.8082C83.8082 95.3 82.7082 99.9 81.2082 104.5C79.6082 109.6 78.0082 115 76.3082 120.3C75.0082 125.7 73.3082 130.7 71.7082 135.2Z" fill="#9999FF"/>
<path d="M221.208 99.0002V164.5C221.208 167.4 221.208 169.9 221.308 172.2C221.408 174.4 221.508 176.4 221.608 178.1C221.808 179.8 221.908 180.8 222.008 181.9C222.108 182.9 221.708 183.3 220.808 183.3H202.508C201.608 183.4 200.808 182.9 200.508 182.1C200.308 181.2 200.108 180.3 199.908 179.4C199.708 178.7 199.708 177.9 199.708 177.2C196.308 180.3 192.108 182.5 187.608 183.8C183.808 184.9 179.708 185.4 175.708 185.4C171.708 185.4 167.808 184.9 164.108 183.6C160.708 182.4 157.508 180.4 155.008 177.7C152.208 174.7 150.208 171.2 149.008 167.3C147.508 162.4 146.808 157.3 146.908 152.1V99.1002C146.808 98.5002 147.208 97.8002 148.008 97.7002C148.108 97.7002 148.208 97.7002 148.308 97.7002H168.708C169.308 97.6002 170.008 98.0002 170.108 98.8002C170.108 98.9002 170.108 99.0002 170.108 99.1002V149.3C170.108 154 171.208 157.7 173.208 160.4C175.208 163.1 179.408 164.5 184.208 164.5C186.708 164.5 189.108 164.1 191.508 163.2C194.008 162.3 196.208 161.2 198.208 159.7V99.0002C198.208 98.3002 198.708 97.8002 199.708 97.8002H220.108C220.608 97.7002 221.308 98.1002 221.308 98.7002C221.208 98.8002 221.208 98.9002 221.208 99.0002Z" fill="#9999FF"/>
</svg>

        </g>
         
        <g transform="translate(900, 0)">
          <svg xmlns="http://www.w3.org/2000/svg" width="256" height="256" fill="none" viewBox="0 0 256 256"><rect width="256" height="256" fill="#F4F2ED" rx="60"/><g clip-path="url(#clip0_4_187)"><path fill="#0ACF83" d="M94.3467 228C112.747 228 127.68 213.067 127.68 194.667V161.333H94.3467C75.9467 161.333 61.0133 176.267 61.0133 194.667C61.0133 213.067 75.9467 228 94.3467 228Z"/><path fill="#A259FF" d="M61.0133 128C61.0133 109.6 75.9467 94.6667 94.3467 94.6667H127.68V161.333H94.3467C75.9467 161.333 61.0133 146.4 61.0133 128Z"/><path fill="#F24E1E" d="M61.0133 61.3333C61.0133 42.9333 75.9467 28 94.3467 28H127.68V94.6667H94.3467C75.9467 94.6667 61.0133 79.7333 61.0133 61.3333Z"/><path fill="#FF7262" d="M127.68 28H161.013C179.413 28 194.347 42.9333 194.347 61.3333C194.347 79.7333 179.413 94.6667 161.013 94.6667H127.68V28Z"/><path fill="#1ABCFE" d="M194.347 128C194.347 146.4 179.413 161.333 161.013 161.333C142.613 161.333 127.68 146.4 127.68 128C127.68 109.6 142.613 94.6667 161.013 94.6667C179.413 94.6667 194.347 109.6 194.347 128Z"/></g><defs><clipPath id="clip0_4_187"><rect width="133.36" height="200" fill="#fff" transform="translate(61 28)"/></clipPath></defs></svg>
        </g>
         
        <g transform="translate(1200, 0)">
          <svg xmlns="http://www.w3.org/2000/svg" width="256" height="256" fill="none" viewBox="0 0 256 256"><rect width="256" height="256" fill="#00005B" rx="60"/><path fill="#99F" d="M54 182.68V72.8133C54 72.0667 54.32 71.64 55.0667 71.64C56.88 71.64 58.5867 71.64 61.04 71.5333C63.6 71.4267 66.2667 71.4267 69.1467 71.32C72.0267 71.2133 75.12 71.2133 78.4267 71.1067C81.7333 71 84.9333 71 88.1333 71C96.88 71 104.133 72.0667 110.107 74.3067C115.44 76.12 120.347 79.1067 124.4 83.0533C127.813 86.4667 130.48 90.6267 132.187 95.2133C133.787 99.6933 134.64 104.28 134.64 109.08C134.64 118.253 132.507 125.827 128.24 131.8C123.973 137.773 118 142.253 111.067 144.813C103.813 147.48 95.8133 148.44 87.0667 148.44C84.5067 148.44 82.8 148.44 81.7333 148.333C80.6667 148.227 79.1733 148.227 77.1467 148.227V182.467C77.2533 183.213 76.72 183.853 75.9733 183.96H75.5467H55.28C54.4267 183.96 54 183.533 54 182.573V182.68ZM77.2533 92.3333V128.173C78.7467 128.28 80.1333 128.387 81.4133 128.387H87.0667C91.2267 128.387 95.3867 127.747 99.3333 126.467C102.747 125.507 105.733 123.48 108.08 120.813C110.32 118.147 111.387 114.52 111.387 109.827C111.493 106.52 110.64 103.213 108.933 100.333C107.12 97.56 104.56 95.4267 101.467 94.2533C97.52 92.6533 93.2533 92.0133 88.88 92.12C86.1067 92.12 83.6533 92.12 81.6267 92.2267C79.4933 92.12 78 92.2267 77.2533 92.3333V92.3333Z"/><path fill="#99F" d="M150 98.6267H168.667C169.734 98.6267 170.587 99.3733 170.907 100.333C171.227 101.187 171.44 102.04 171.547 103C171.76 104.067 171.974 105.24 172.08 106.307C172.187 107.48 172.294 108.76 172.294 110.147C175.494 106.413 179.334 103.32 183.707 100.973C188.614 98.2 194.267 96.8133 199.92 96.8133C200.667 96.7067 201.307 97.24 201.414 97.9867V98.4133V119.213C201.414 120.067 200.88 120.387 199.707 120.387C195.867 120.28 191.92 120.6 188.187 121.453C185.094 122.093 182.107 123.053 179.227 124.333C177.2 125.293 175.28 126.573 173.787 128.28V182.68C173.787 183.747 173.36 184.173 172.4 184.173H151.387C150.534 184.28 149.787 183.747 149.68 182.893V182.467V123.373C149.68 120.813 149.68 118.147 149.574 115.373C149.467 112.6 149.467 109.827 149.36 107.053C149.36 104.6 149.147 102.253 148.934 99.8C148.827 99.2667 149.147 98.7333 149.68 98.6267C149.68 98.52 149.894 98.52 150 98.6267V98.6267Z"/></svg>
        </g>
         
        <g transform="translate(1500, 0)">
          <svg xmlns="http://www.w3.org/2000/svg" width="256" height="256" fill="none" viewBox="0 0 256 256"><rect width="256" height="256" fill="#001E36" rx="60"/><path fill="#31A8FF" d="M57.6001 178.04V68.2799C57.6001 67.5332 57.9201 67.1066 58.6668 67.1066C60.4801 67.1066 62.1868 67.1066 64.6401 66.9999C67.2001 66.8932 69.8668 66.8932 72.7468 66.7866C75.6268 66.6799 78.7201 66.6799 82.0268 66.5732C85.3334 66.4666 88.5334 66.4666 91.7334 66.4666C100.48 66.4666 107.733 67.5332 113.707 69.7732C119.04 71.5866 123.947 74.5732 128 78.5199C131.413 81.9332 134.08 86.0932 135.787 90.6799C137.387 95.1599 138.24 99.7466 138.24 104.547C138.24 113.72 136.107 121.293 131.84 127.267C127.573 133.24 121.6 137.72 114.667 140.28C107.413 142.947 99.4134 143.907 90.6668 143.907C88.1068 143.907 86.4001 143.907 85.3334 143.8C84.2668 143.693 82.7734 143.693 80.7468 143.693V177.933C80.8534 178.68 80.3201 179.32 79.5734 179.427C79.4668 179.427 79.3601 179.427 79.1468 179.427H58.8801C58.0268 179.427 57.6001 179 57.6001 178.04ZM80.8534 87.6932V123.533C82.3468 123.64 83.7334 123.747 85.0134 123.747H90.6668C94.8268 123.747 98.9868 123.107 102.933 121.827C106.347 120.867 109.333 118.84 111.68 116.173C113.92 113.507 114.987 109.88 114.987 105.187C115.093 101.88 114.24 98.5732 112.533 95.6932C110.72 92.9199 108.16 90.7866 105.067 89.6132C101.12 88.0132 96.8534 87.3732 92.4801 87.4799C89.7068 87.4799 87.2534 87.4799 85.2268 87.5866C83.0934 87.4799 81.6001 87.5866 80.8534 87.6932Z"/><path fill="#31A8FF" d="M204.8 117.027C201.6 115.32 198.187 114.147 194.56 113.4C190.613 112.547 186.667 112.013 182.613 112.013C180.48 111.907 178.24 112.227 176.213 112.76C174.827 113.08 173.653 113.827 172.907 114.893C172.373 115.747 172.053 116.813 172.053 117.773C172.053 118.733 172.48 119.693 173.12 120.547C174.08 121.72 175.36 122.68 176.747 123.427C179.2 124.707 181.76 125.88 184.32 126.947C190.08 128.867 195.627 131.533 200.747 134.733C204.267 136.973 207.147 139.96 209.173 143.587C210.88 147 211.733 150.733 211.627 154.573C211.733 159.587 210.24 164.6 207.467 168.76C204.48 173.027 200.32 176.333 195.52 178.253C190.293 180.493 183.893 181.667 176.213 181.667C171.307 181.667 166.507 181.24 161.707 180.28C157.973 179.64 154.24 178.467 150.827 176.867C150.08 176.44 149.547 175.693 149.653 174.84V156.28C149.653 155.96 149.76 155.533 150.08 155.32C150.4 155.107 150.72 155.213 151.04 155.427C155.2 157.88 159.573 159.587 164.267 160.653C168.32 161.72 172.587 162.253 176.853 162.253C180.907 162.253 183.787 161.72 185.707 160.76C187.413 160.013 188.587 158.2 188.587 156.28C188.587 154.787 187.733 153.4 186.027 152.013C184.32 150.627 180.8 149.027 175.573 147C170.133 145.08 165.12 142.52 160.427 139.32C157.12 136.973 154.347 133.88 152.32 130.253C150.613 126.84 149.76 123.107 149.867 119.373C149.867 114.787 151.147 110.413 153.493 106.467C156.16 102.2 160.107 98.7866 164.693 96.6532C169.707 94.0932 176 92.9199 183.573 92.9199C187.947 92.9199 192.427 93.2399 196.8 93.8799C200 94.3066 203.093 95.1599 205.973 96.3332C206.4 96.4399 206.827 96.8666 207.04 97.2932C207.147 97.7199 207.253 98.1466 207.253 98.5732V115.96C207.253 116.387 207.04 116.813 206.72 117.027C205.76 117.24 205.227 117.24 204.8 117.027Z"/></svg>
        </g>
         
        <g transform="translate(1800, 0)">
          <svg width="256" height="256" viewBox="0 0 256 256" fill="none" xmlns="http://www.w3.org/2000/svg">
<rect width="256" height="256" rx="60" fill="#470137"/>
<path d="M134.239 80.2153L104.239 129.715L136.239 182.215C136.439 182.615 136.539 183.015 136.439 183.415C136.339 183.815 135.939 183.515 135.339 183.615H112.439C110.839 183.615 109.739 183.515 109.039 182.515C106.939 178.315 104.739 174.215 102.639 170.015C100.539 165.915 98.2392 161.715 95.8392 157.415C93.4392 153.115 91.0392 148.815 88.6392 144.415H88.4392C86.3392 148.715 84.0392 153.015 81.7392 157.315C79.4392 161.615 77.1392 165.915 74.9392 170.115C72.6392 174.315 70.3392 178.615 68.0392 182.715C67.6392 183.715 66.8392 183.815 65.7392 183.815H43.7392C43.3392 183.815 43.0392 184.015 43.0392 183.515C42.9392 183.115 43.0392 182.715 43.2392 182.415L74.3392 131.415L44.0392 80.1153C43.7392 79.7153 43.6392 79.3153 43.8392 79.1153C44.0392 78.8153 44.4392 78.7153 44.8392 78.7153H67.5392C68.0392 78.7153 68.5392 78.8153 68.9392 78.9153C69.3392 79.1153 69.6392 79.4153 69.9392 79.8153C71.8392 84.1153 74.0392 88.4153 76.3392 92.7153C78.7392 97.0153 81.0392 101.215 83.5392 105.415C85.9392 109.615 88.1392 113.815 90.2392 118.115H90.4392C92.5392 113.715 94.7392 109.415 96.9392 105.215C99.1392 101.015 101.439 96.8153 103.739 92.6153C106.039 88.4153 108.239 84.1153 110.439 80.0153C110.539 79.6153 110.739 79.2153 111.039 79.0153C111.439 78.8153 111.839 78.7153 112.339 78.8153H133.439C133.939 78.7153 134.439 79.0153 134.539 79.5153C134.639 79.6153 134.439 80.0153 134.239 80.2153Z" fill="#FF61F6"/>
<path d="M180.439 185.716C173.039 185.816 165.639 184.316 158.939 181.216C152.639 178.316 147.439 173.516 143.839 167.616C140.139 161.516 138.339 153.916 138.339 144.816C138.239 137.416 140.139 130.116 143.839 123.716C147.639 117.216 153.139 111.816 159.739 108.216C166.739 104.316 175.139 102.416 185.039 102.416C185.539 102.416 186.239 102.416 187.139 102.516C188.039 102.616 189.039 102.616 190.239 102.716V71.1155C190.239 70.4155 190.539 70.0155 191.239 70.0155H211.539C212.039 69.9155 212.439 70.3155 212.539 70.7155C212.539 70.8155 212.539 70.9155 212.539 70.9155V166.116C212.539 167.916 212.639 169.916 212.739 172.116C212.939 174.216 213.039 176.216 213.139 177.916C213.139 178.616 212.839 179.216 212.139 179.516C206.939 181.716 201.439 183.316 195.839 184.316C190.739 185.216 185.639 185.716 180.439 185.716ZM190.239 165.716V121.716C189.339 121.516 188.439 121.316 187.539 121.216C186.439 121.116 185.339 121.016 184.239 121.016C180.339 121.016 176.439 121.816 172.939 123.616C169.539 125.316 166.639 127.816 164.439 131.016C162.239 134.216 161.139 138.516 161.139 143.716C161.039 147.216 161.639 150.716 162.839 154.016C163.839 156.716 165.339 159.116 167.339 161.116C169.239 162.916 171.539 164.316 174.139 165.116C176.839 166.016 179.639 166.416 182.439 166.416C183.939 166.416 185.339 166.316 186.639 166.216C187.939 166.316 189.039 166.116 190.239 165.716Z" fill="#FF61F6"/>
</svg>

        </g>
        
  </svg>
  